<?xml version="1.0" standalone="no"?>
<!DOCTYPE svg PUBLIC "-//W3C//DTD SVG 20010904//EN"
 "http://www.w3.org/TR/2001/REC-SVG-20010904/DTD/svg10.dtd">
<svg version="1.0" xmlns="http://www.w3.org/2000/svg"
 width="1218.000000pt" height="621.000000pt" viewBox="0 0 1218.000000 621.000000"
 preserveAspectRatio="xMidYMid meet">
<metadata>
Created by potrace 1.15, written by Peter Selinger 2001-2017
</metadata>
<g transform="translate(0.000000,621.000000) scale(0.100000,-0.100000)"
fill="#000000" stroke="none">
<path d="M5840 6080 c-290 -30 -526 -276 -664 -691 -44 -132 -66 -240 -73
-354 l-6 -91 -71 25 c-86 29 -200 32 -296 7 -148 -38 -336 -156 -441 -277 -52
-59 -152 -202 -161 -231 -3 -8 -25 5 -59 33 -185 157 -349 249 -489 275 -115
22 -333 14 -444 -15 -165 -44 -324 -143 -392 -245 -47 -72 -64 -131 -71 -253
-3 -57 -7 -103 -9 -103 -1 0 -35 20 -76 45 -40 25 -101 54 -135 65 -90 28
-260 44 -388 36 -222 -12 -371 -50 -481 -123 -103 -67 -285 -280 -388 -453
-90 -153 -123 -266 -152 -530 -10 -85 -18 -156 -18 -157 -1 -1 -28 5 -61 14
-85 21 -318 21 -415 -1 -227 -49 -380 -191 -420 -391 -24 -116 9 -280 76 -376
110 -159 317 -259 534 -259 77 0 247 27 303 49 15 6 27 9 27 7 0 -2 -24 -54
-54 -117 -68 -146 -91 -219 -111 -350 -19 -131 -19 -204 -1 -290 44 -207 193
-316 394 -288 75 11 122 33 198 95 l57 47 -7 -49 c-34 -253 -37 -287 -27 -355
15 -93 41 -159 86 -213 160 -196 444 -226 739 -79 78 39 143 101 201 190 l39
61 38 -79 c43 -88 101 -143 195 -185 256 -114 527 -44 763 197 89 90 142 164
174 242 l23 57 53 -88 c104 -171 176 -255 330 -383 169 -141 314 -191 550
-190 331 1 578 123 700 344 23 43 46 75 50 70 4 -4 35 -49 69 -99 74 -110 144
-185 199 -213 75 -38 188 -63 287 -63 178 0 297 43 396 141 l60 60 132 -132
c73 -73 159 -151 193 -173 112 -74 293 -119 534 -131 140 -7 271 6 455 43 337
68 540 156 697 303 97 90 126 145 140 261 10 80 13 90 29 85 10 -3 110 -51
223 -106 276 -134 358 -160 507 -167 105 -4 126 -2 210 22 206 59 489 232 622
382 20 22 51 69 68 104 43 88 100 313 106 425 5 80 2 98 -21 160 -15 39 -40
94 -56 122 -17 29 -30 59 -30 66 0 10 47 16 208 26 366 22 459 41 524 109 86
89 65 189 -64 307 l-61 55 126 0 c309 0 684 145 867 336 128 133 180 251 181
409 0 159 -69 294 -229 447 -101 95 -181 152 -264 185 -208 84 -688 30 -862
-98 -22 -16 -43 -26 -46 -22 -4 5 -12 33 -19 63 -33 139 -181 494 -282 673
-113 202 -204 299 -346 369 -85 42 -88 43 -187 43 -138 -1 -197 -24 -286 -114
-36 -36 -77 -81 -91 -100 l-25 -34 -46 64 c-193 270 -387 364 -773 376 -132 4
-191 1 -265 -11 -254 -45 -520 -182 -720 -373 l-46 -43 -44 107 c-83 198 -241
455 -451 733 -210 278 -336 407 -521 531 -255 172 -506 252 -718 229z m291
-309 c164 -60 345 -177 471 -303 181 -181 461 -568 606 -838 92 -171 135 -299
153 -449 9 -76 7 -96 -17 -203 -16 -74 -24 -131 -20 -152 11 -59 70 -96 151
-96 81 0 109 51 160 285 52 238 270 452 580 569 150 56 368 72 548 41 242 -42
345 -133 485 -425 79 -166 106 -203 159 -221 105 -34 196 57 178 178 -8 52 14
96 102 206 73 92 122 107 209 68 97 -44 171 -143 289 -386 148 -302 215 -506
231 -702 l6 -78 -40 -63 c-22 -35 -43 -76 -47 -91 -17 -78 68 -157 163 -152
32 1 135 102 158 154 24 54 113 175 164 220 21 20 56 45 77 55 96 49 342 81
487 64 105 -12 155 -41 277 -161 101 -99 133 -164 127 -254 -6 -83 -30 -130
-107 -207 -91 -91 -206 -149 -430 -217 -82 -25 -100 -27 -381 -32 -260 -6
-299 -8 -330 -25 -159 -84 -142 -215 46 -362 l88 -69 -89 -7 c-373 -30 -442
-45 -524 -114 -92 -77 -87 -191 15 -396 25 -50 44 -102 44 -121 0 -43 -55
-269 -79 -321 -45 -102 -297 -276 -499 -345 -74 -25 -172 -28 -255 -6 -31 8
-150 59 -264 113 -262 125 -337 152 -433 159 -162 11 -225 -63 -237 -276 -6
-98 -8 -106 -37 -139 -96 -110 -301 -195 -615 -256 -172 -34 -300 -42 -445
-27 -259 27 -287 42 -529 287 -203 206 -255 244 -329 244 -98 0 -156 -74 -170
-220 -2 -18 -16 -32 -48 -50 -40 -22 -56 -25 -155 -25 -154 0 -176 11 -257
128 -147 216 -236 296 -326 297 -81 0 -163 -76 -252 -234 -58 -104 -102 -146
-192 -185 -115 -51 -346 -67 -469 -33 -87 24 -136 54 -238 146 -114 102 -144
141 -263 339 -147 244 -217 308 -320 294 -87 -12 -132 -78 -178 -262 -24 -99
-34 -124 -71 -171 -65 -85 -169 -175 -245 -214 -62 -31 -77 -35 -149 -35 -83
0 -150 21 -187 59 -9 9 -29 56 -43 103 -58 188 -127 273 -221 273 -71 0 -165
-89 -256 -241 -31 -52 -65 -104 -76 -115 -87 -92 -314 -138 -411 -83 -90 50
-99 115 -55 397 14 92 27 210 28 262 1 83 -2 101 -24 145 -32 64 -78 95 -139
95 -72 -1 -116 -28 -260 -159 l-133 -122 -46 3 c-63 4 -74 28 -74 157 0 163
19 227 136 470 57 119 111 239 121 266 36 104 17 195 -48 236 -26 17 -44 20
-103 16 -63 -3 -87 -11 -199 -65 -198 -96 -358 -116 -496 -63 -223 85 -254
348 -51 438 73 32 210 46 318 33 113 -14 336 -91 365 -126 18 -22 71 -44 104
-44 81 0 152 88 142 176 -5 50 -44 100 -84 110 -13 4 -35 20 -49 37 -26 31
-26 35 -20 122 10 137 43 335 66 397 43 114 208 348 314 446 70 64 132 87 282
107 138 18 199 19 316 4 78 -10 98 -18 171 -60 210 -125 289 -149 366 -110 79
41 108 121 120 334 l9 149 38 40 c49 50 158 104 249 123 92 19 245 19 320 0
99 -26 245 -124 426 -285 53 -47 68 -67 74 -97 10 -59 80 -231 122 -302 71
-120 217 -231 304 -231 37 0 53 6 84 33 35 31 39 38 43 94 3 39 -2 81 -12 117
-28 96 -112 248 -191 343 l-73 90 28 55 c94 187 216 304 390 375 72 29 157 32
215 8 22 -9 70 -35 107 -58 65 -40 67 -42 93 -116 78 -221 183 -319 284 -263
56 30 76 81 75 187 0 110 -27 177 -101 256 l-48 51 0 157 c1 173 16 265 67
411 89 253 223 424 368 471 14 5 72 7 130 5 88 -3 119 -9 191 -35z"/>
<path d="M2793 3559 c-112 -19 -247 -92 -393 -214 -99 -83 -227 -216 -277
-290 -86 -127 -172 -326 -220 -507 -25 -94 -28 -119 -27 -278 0 -163 2 -180
27 -255 59 -176 163 -270 357 -321 89 -24 269 -24 375 0 161 36 234 74 442
230 137 102 171 147 159 211 -15 78 -99 129 -172 105 -19 -7 -90 -53 -157
-104 -151 -114 -193 -139 -282 -165 -194 -55 -387 -23 -442 74 -43 77 -54 228
-28 377 25 142 106 351 181 465 85 127 286 308 413 371 l75 37 212 5 c210 5
213 5 239 30 57 53 69 112 35 168 -41 66 -63 72 -275 71 -104 -1 -214 -5 -242
-10z"/>
<path d="M9520 3395 c-158 -35 -720 -148 -827 -165 -167 -27 -199 -26 -275 10
-74 35 -96 37 -148 10 -46 -24 -70 -64 -70 -118 0 -61 33 -100 125 -147 74
-37 87 -40 175 -43 65 -2 139 5 237 21 l141 23 6 -90 c3 -50 11 -287 17 -526
6 -239 15 -452 20 -472 33 -129 223 -125 257 6 4 17 1 279 -8 581 -9 303 -15
552 -14 553 2 2 115 28 253 57 138 29 262 60 276 69 83 54 81 167 -4 223 -38
26 -76 28 -161 8z"/>
<path d="M6096 3165 c-293 -75 -327 -80 -423 -61 -78 16 -112 13 -162 -13 -59
-32 -68 -149 -15 -202 39 -38 185 -72 294 -67 l75 3 28 -485 c20 -360 32 -496
44 -528 20 -56 61 -82 127 -82 43 0 53 4 87 39 38 38 39 40 39 112 0 41 -11
263 -25 494 -13 231 -26 442 -27 470 l-3 50 125 33 c92 24 132 39 152 59 76
73 48 194 -53 223 -45 13 -27 16 -263 -45z"/>
<path d="M5185 3186 c-16 -7 -41 -26 -55 -41 -41 -44 -34 -107 54 -460 42
-170 90 -371 106 -445 17 -74 33 -146 36 -159 4 -18 -13 -4 -64 50 -149 160
-189 211 -307 389 -149 224 -180 264 -235 301 -32 22 -55 29 -89 29 -99 0
-150 -68 -151 -200 l-1 -75 -21 40 c-54 104 -209 254 -329 319 -71 39 -201 53
-302 32 -99 -20 -151 -46 -221 -108 -96 -85 -165 -206 -208 -365 -31 -116 -31
-309 0 -418 65 -227 199 -380 369 -422 56 -14 78 -15 148 -5 205 30 367 118
471 255 76 101 117 211 132 359 l7 73 18 -102 c23 -138 21 -219 -7 -357 -28
-136 -24 -168 30 -215 46 -41 104 -45 160 -10 39 24 50 48 80 188 27 122 35
257 20 346 l-8 50 40 -54 c61 -80 256 -294 355 -387 178 -168 312 -189 378
-62 32 60 37 195 14 325 -39 222 -238 1045 -261 1080 -32 50 -107 73 -159 49z
m-1142 -518 c65 -45 150 -135 175 -183 54 -106 36 -292 -38 -402 -22 -33 -60
-72 -89 -92 -50 -34 -190 -81 -238 -81 -90 0 -189 156 -208 326 -11 100 23
248 78 342 l31 52 46 -6 c38 -4 56 0 115 30 39 19 76 35 83 35 8 1 28 -9 45
-21z"/>
<path d="M6921 3055 c-29 -14 -96 -55 -148 -91 -71 -50 -99 -75 -110 -102 -38
-91 29 -185 131 -184 31 1 56 12 124 59 46 32 90 63 99 68 11 8 22 1 47 -27
30 -35 94 -154 111 -206 l7 -23 -42 21 c-142 72 -305 28 -440 -118 -134 -145
-196 -355 -160 -541 32 -168 153 -335 290 -400 72 -34 173 -35 280 -2 210 65
303 158 374 376 34 102 56 229 56 315 0 146 -69 390 -166 590 -46 94 -69 127
-124 182 -40 40 -87 76 -115 88 -66 28 -146 26 -214 -5z m303 -808 l49 1 -7
-82 c-7 -92 -36 -205 -72 -281 -35 -75 -133 -135 -222 -135 -67 0 -157 126
-168 238 -15 136 71 300 177 341 20 7 40 0 109 -37 69 -37 94 -46 134 -45z"/>
<path d="M8090 2945 c-155 -39 -322 -154 -400 -275 -95 -148 -136 -412 -90
-578 67 -241 311 -549 473 -597 99 -29 241 -11 326 43 90 57 276 263 287 317
20 106 -97 191 -194 141 -15 -8 -70 -60 -122 -116 -97 -106 -133 -130 -195
-130 -30 0 -45 9 -89 53 -59 59 -160 206 -201 293 -39 82 -45 181 -16 294 27
106 59 160 124 209 110 82 155 95 232 69 55 -18 61 -19 102 -3 74 28 107 96
83 169 -14 43 -45 69 -115 95 -73 28 -140 33 -205 16z"/>
</g>
</svg>
