<?xml version="1.0" standalone="no"?>
<!DOCTYPE svg PUBLIC "-//W3C//DTD SVG 20010904//EN"
 "http://www.w3.org/TR/2001/REC-SVG-20010904/DTD/svg10.dtd">
<svg version="1.0" xmlns="http://www.w3.org/2000/svg"
 width="868.000000pt" height="454.000000pt" viewBox="0 0 868.000000 454.000000"
 preserveAspectRatio="xMidYMid meet">
<metadata>
Created by potrace 1.15, written by Peter Selinger 2001-2017
</metadata>
<g transform="translate(0.000000,454.000000) scale(0.100000,-0.100000)"
fill="#000000" stroke="none">
<path d="M5315 4380 c-85 -22 -186 -65 -365 -155 -259 -130 -298 -168 -376
-365 -20 -52 -40 -98 -44 -103 -3 -4 -47 46 -97 110 -115 148 -142 174 -278
265 -207 140 -449 213 -738 225 -348 15 -742 -91 -962 -259 -117 -89 -170
-174 -275 -440 l-62 -158 -40 0 c-33 0 -48 8 -90 45 -217 195 -671 212 -937
34 -114 -76 -207 -200 -226 -301 -10 -53 9 -129 60 -235 l43 -92 -86 -26
c-209 -62 -313 -119 -446 -246 -292 -277 -341 -708 -108 -944 61 -62 113 -84
212 -92 44 -3 80 -7 80 -9 0 -2 -18 -31 -40 -65 -70 -109 -94 -167 -98 -245
-9 -163 63 -287 208 -357 61 -30 71 -32 181 -32 115 0 117 1 189 37 l73 38 -7
-46 c-12 -88 31 -215 97 -290 75 -87 246 -124 410 -90 88 18 117 31 204 92 34
24 64 41 66 37 3 -5 12 -35 22 -68 9 -33 25 -76 35 -95 26 -51 141 -155 208
-189 112 -56 157 -66 287 -65 147 0 279 26 489 95 229 75 371 153 503 275 l41
39 35 -70 c80 -161 250 -345 381 -409 116 -57 227 -80 391 -81 160 0 213 13
365 91 156 80 337 236 428 370 28 42 82 149 82 164 0 5 5 21 10 35 l10 27 35
-20 c85 -51 277 -105 429 -122 165 -18 339 18 476 97 81 47 196 162 234 233
16 30 30 56 32 58 1 2 19 -5 41 -16 117 -60 309 -86 427 -58 145 34 269 124
316 228 29 63 23 162 -16 295 l-6 22 62 -20 c34 -10 79 -19 99 -19 90 0 255
58 491 173 213 104 274 187 273 372 0 44 -5 91 -11 105 l-10 25 142 0 c132 0
145 2 198 27 114 53 158 104 179 206 10 46 10 75 1 130 -34 202 -117 301 -335
394 -148 64 -264 91 -397 92 -117 1 -134 -3 -241 -61 -4 -2 -10 49 -14 114 -9
161 -27 243 -75 341 -100 203 -348 458 -493 509 -34 12 -81 18 -137 18 -120 0
-164 -19 -244 -107 l-64 -71 -38 74 c-77 154 -151 238 -299 339 -113 76 -262
148 -350 168 -76 18 -308 42 -393 41 -43 0 -108 -8 -147 -19z m343 -245 c149
-18 171 -25 276 -77 176 -88 270 -171 335 -298 61 -117 101 -178 150 -226 106
-104 207 -73 337 102 50 69 57 74 91 74 61 0 116 -35 217 -140 99 -103 154
-178 201 -269 25 -50 28 -68 35 -225 15 -295 30 -363 89 -420 66 -63 155 -42
275 66 65 58 72 62 126 66 113 8 384 -83 452 -152 31 -32 48 -77 51 -137 3
-75 -3 -76 -424 -53 -136 8 -174 -1 -219 -52 -56 -64 -37 -145 50 -215 89 -71
90 -73 90 -137 0 -45 -4 -63 -18 -76 -50 -44 -436 -206 -493 -206 -11 0 -66
21 -122 47 -85 39 -114 48 -174 51 -69 4 -72 3 -107 -29 -27 -25 -39 -46 -44
-79 -13 -76 2 -146 83 -397 9 -26 -45 -71 -112 -94 -118 -39 -249 -12 -360 75
-98 77 -147 99 -201 93 -83 -9 -124 -74 -126 -202 -2 -83 -8 -95 -80 -163
-129 -122 -294 -154 -521 -102 -132 31 -191 56 -295 125 -54 36 -118 74 -142
85 -85 39 -172 19 -203 -46 -20 -42 -19 -87 5 -154 26 -74 25 -95 -9 -165 -35
-73 -90 -139 -182 -220 -85 -75 -156 -119 -264 -162 -71 -28 -97 -33 -165 -33
-96 0 -204 22 -280 58 -104 49 -238 208 -299 357 -17 41 -45 108 -62 149 -37
92 -96 161 -149 177 -76 23 -150 -44 -166 -151 -9 -61 -24 -87 -81 -141 -91
-89 -209 -151 -402 -213 -174 -56 -285 -79 -396 -80 -88 -1 -107 2 -155 25
-93 43 -127 80 -151 163 -50 173 -83 231 -149 261 -75 34 -148 7 -326 -119
-63 -44 -102 -56 -189 -56 -113 0 -134 46 -103 221 30 172 15 256 -55 300 -61
39 -155 11 -292 -86 -88 -62 -118 -75 -174 -75 -67 0 -97 13 -121 52 -35 57
-27 94 40 199 95 148 134 233 138 307 4 63 4 63 -36 102 -55 51 -117 64 -262
55 l-107 -7 -26 31 c-60 72 -82 198 -53 306 56 211 222 372 460 446 170 53
273 116 302 186 29 68 9 163 -62 305 -34 68 -34 69 -18 104 20 42 82 97 146
130 108 55 301 73 425 41 66 -17 157 -59 168 -78 4 -6 11 -41 16 -78 10 -86
24 -116 64 -141 69 -43 157 -10 185 68 12 35 19 42 41 42 39 0 110 27 136 52
44 41 86 120 153 284 37 90 83 189 101 220 79 131 300 234 609 285 256 43 572
2 775 -99 28 -13 89 -51 137 -84 75 -51 104 -80 199 -200 147 -184 228 -248
314 -248 93 0 163 85 246 295 28 72 53 120 73 138 36 34 384 209 470 237 75
23 150 25 314 5z"/>
<path d="M2860 3076 c-83 -25 -185 -67 -203 -84 -31 -28 -41 -54 -43 -117 -2
-94 -59 -549 -70 -567 -3 -4 -40 -8 -83 -8 l-78 0 -7 118 c-12 194 -44 312
-113 419 -74 113 -186 160 -313 134 -91 -19 -506 -241 -536 -287 -57 -85 16
-203 117 -191 21 3 104 43 197 96 204 116 266 145 297 137 47 -12 87 -137 98
-308 l5 -68 -122 0 c-171 0 -234 -12 -346 -67 -170 -84 -286 -226 -331 -404
-35 -136 -12 -246 76 -367 89 -122 196 -185 348 -204 84 -10 100 -9 175 10
255 65 385 252 425 613 l13 114 75 3 75 3 -9 -93 c-12 -129 -2 -350 18 -418
23 -74 97 -148 180 -181 52 -20 78 -23 190 -24 111 0 139 3 189 22 130 49 235
135 302 245 37 61 94 205 94 238 0 34 16 22 29 -22 71 -243 282 -420 517 -435
132 -9 256 39 397 154 138 114 248 309 292 518 15 75 28 105 45 105 4 0 12
-45 19 -101 25 -205 72 -331 153 -412 85 -85 170 -105 299 -69 118 33 230 117
299 224 47 73 96 221 116 351 16 104 15 424 -1 474 -7 21 -5 22 26 13 26 -8
75 -2 211 22 98 17 180 30 182 27 3 -3 10 -38 17 -79 13 -87 8 -237 -21 -551
-26 -282 -26 -319 2 -354 49 -63 135 -66 193 -5 28 29 28 31 52 282 31 342 39
580 21 681 -8 42 -12 77 -9 77 19 0 455 82 473 89 76 29 98 138 41 196 -51 51
-50 51 -625 -51 -293 -52 -540 -97 -549 -100 -10 -2 -28 -16 -42 -30 l-25 -25
-17 53 c-38 114 -72 144 -152 135 -53 -6 -89 -36 -104 -87 -10 -32 -6 -51 30
-166 48 -147 60 -225 60 -374 1 -183 -37 -365 -93 -448 -36 -54 -111 -108
-163 -118 -30 -6 -39 -3 -54 17 -28 36 -48 109 -69 254 -38 265 -34 600 10
765 11 41 20 90 20 108 0 73 -52 122 -131 122 -33 0 -47 -6 -74 -33 -27 -27
-36 -50 -59 -143 -28 -117 -45 -293 -46 -456 0 -54 -3 -98 -7 -98 -18 1 -31
18 -56 73 -43 95 -135 228 -211 303 -124 123 -265 171 -478 161 -109 -5 -125
-8 -191 -39 -129 -62 -165 -112 -139 -196 11 -34 9 -37 -39 -91 -54 -60 -130
-204 -147 -281 -6 -25 -14 -74 -18 -109 l-7 -63 -22 45 c-48 101 -120 164
-215 188 l-49 13 71 74 c93 98 122 161 122 262 -1 163 -105 311 -262 373 -61
24 -183 31 -242 13z m167 -252 c48 -24 83 -78 83 -132 0 -37 -6 -49 -42 -87
-34 -36 -236 -160 -245 -152 -1 1 5 51 13 111 7 60 15 140 16 177 3 68 3 69
38 83 47 20 94 20 137 0z m1164 -203 c84 -25 179 -129 255 -278 36 -71 37 -74
31 -155 -12 -169 -87 -339 -195 -439 -89 -83 -174 -124 -246 -116 -97 10 -211
89 -256 176 -51 101 -78 266 -61 370 18 111 55 173 189 316 67 72 122 134 122
139 0 11 111 1 161 -13z m-1344 -480 c21 -6 99 -15 173 -21 149 -12 160 -17
191 -85 32 -72 34 -132 6 -206 -61 -163 -150 -237 -294 -247 -161 -10 -178 6
-176 183 1 109 12 245 29 358 4 27 10 37 19 33 8 -3 31 -9 52 -15z m-734 -103
c-10 -119 -41 -277 -63 -324 -53 -109 -126 -156 -245 -157 -80 -1 -112 12
-169 70 -58 58 -74 100 -65 173 12 106 86 203 199 260 65 33 91 38 227 39
l121 1 -5 -62z"/>
</g>
</svg>
