<?xml version="1.0" standalone="no"?>
<!DOCTYPE svg PUBLIC "-//W3C//DTD SVG 20010904//EN"
 "http://www.w3.org/TR/2001/REC-SVG-20010904/DTD/svg10.dtd">
<svg version="1.0" xmlns="http://www.w3.org/2000/svg"
 width="2560.000000pt" height="874.000000pt" viewBox="0 0 2560.000000 874.000000"
 preserveAspectRatio="xMidYMid meet">
<metadata>
Created by potrace 1.15, written by Peter Selinger 2001-2017 
</metadata>
<g transform="translate(0.000000,874.000000) scale(0.100000,-0.100000)"
fill="#000000" stroke="none">
<path d="M20385 8680 c-398 -28 -682 -111 -1000 -294 -427 -244 -819 -579
-989 -844 l-40 -63 -76 74 c-343 334 -616 521 -956 656 -307 121 -898 297
-1264 375 -268 57 -588 96 -796 96 -514 0 -1386 -209 -1850 -443 -362 -183
-774 -549 -975 -867 -39 -61 -107 -206 -135 -287 -10 -29 -21 -53 -25 -53 -3
0 -39 30 -79 67 -167 150 -417 281 -701 367 -310 93 -736 143 -1072 125 -158
-8 -186 -11 -342 -36 -371 -57 -616 -164 -908 -397 -122 -97 -262 -229 -328
-312 l-53 -64 -34 62 c-99 182 -193 327 -257 397 -238 262 -544 476 -900 629
-269 115 -605 170 -988 159 -205 -5 -310 -21 -521 -78 -335 -91 -725 -315
-955 -549 -149 -151 -283 -363 -341 -542 -14 -40 -26 -75 -27 -77 -1 -2 -23
15 -49 38 -84 78 -216 121 -375 121 -175 0 -271 -31 -404 -131 -216 -162 -360
-386 -381 -593 -6 -56 -10 -67 -23 -63 -9 3 -70 26 -136 51 -284 110 -494 152
-710 143 -380 -18 -740 -174 -949 -413 -186 -213 -317 -469 -387 -759 -26
-104 -31 -319 -10 -369 6 -16 10 -31 8 -33 -2 -2 -37 -12 -76 -23 -168 -47
-448 -225 -732 -466 -105 -89 -136 -124 -212 -239 -219 -333 -329 -733 -298
-1086 14 -169 40 -270 96 -384 129 -264 359 -398 658 -382 62 3 127 13 165 25
l63 20 -5 -26 c-56 -273 -23 -498 115 -791 134 -285 317 -470 593 -602 113
-54 246 -99 369 -126 125 -27 429 -25 552 4 250 59 483 188 644 359 l68 71 28
-66 c62 -143 161 -275 336 -450 241 -241 469 -382 704 -435 229 -53 642 -56
883 -6 430 87 901 336 1328 701 101 87 192 181 231 241 l26 39 17 -28 c9 -15
61 -107 114 -203 252 -452 386 -596 687 -739 221 -105 365 -139 634 -148 357
-11 634 36 899 153 259 115 519 294 759 524 122 117 193 216 307 430 40 74 76
139 80 143 4 5 49 -43 99 -106 111 -140 209 -233 383 -364 405 -305 856 -533
1194 -603 138 -29 268 -35 489 -21 297 18 419 43 566 117 232 116 609 438 741
634 57 84 118 227 118 276 0 20 3 23 18 15 9 -5 184 -143 387 -306 601 -483
753 -592 926 -664 206 -86 590 -174 929 -212 171 -20 518 -17 665 5 304 45
588 115 748 186 187 82 396 249 518 413 97 130 136 232 142 369 1 40 6 64 12
60 6 -3 42 -26 80 -52 130 -87 210 -129 335 -178 448 -177 940 -286 1345 -299
202 -6 345 5 555 43 521 96 807 232 911 436 11 21 22 38 25 38 3 0 22 -13 42
-30 20 -16 71 -45 112 -63 416 -191 1017 -194 1462 -8 204 86 441 274 630 502
162 195 261 360 288 478 15 65 8 182 -14 235 -18 43 -24 39 87 56 147 22 375
113 512 204 270 180 548 597 641 963 29 115 32 255 8 370 -21 102 -75 252
-116 321 -49 82 -157 192 -233 236 l-66 39 58 51 c92 81 224 207 279 266 131
142 207 312 253 565 40 224 37 414 -10 600 -46 181 -169 431 -328 669 -94 140
-163 219 -273 313 -266 228 -543 398 -738 453 -179 50 -455 30 -628 -46 -30
-13 -98 -53 -153 -88 -54 -36 -100 -62 -102 -58 -3 4 -8 29 -12 57 -35 241
-220 556 -461 784 -300 284 -1037 617 -1540 695 -282 44 -643 63 -889 46z
m-4855 -441 c350 -37 797 -144 1335 -319 330 -108 490 -179 662 -293 259 -173
570 -468 649 -615 69 -130 150 -193 248 -194 67 -1 131 28 175 77 44 51 58 84
97 245 29 117 40 145 81 205 126 186 488 483 821 673 291 167 528 228 929 239
333 10 690 -29 941 -101 262 -76 699 -273 902 -407 170 -112 325 -291 428
-494 34 -66 46 -105 67 -224 50 -281 127 -399 281 -431 107 -22 204 15 422
163 124 84 148 97 216 112 103 23 248 17 328 -14 131 -51 446 -269 576 -400
140 -140 335 -474 402 -687 59 -190 23 -532 -75 -710 -38 -67 -143 -174 -370
-376 -264 -235 -339 -337 -339 -462 0 -50 6 -72 27 -109 55 -94 143 -132 333
-143 109 -7 119 -9 148 -35 66 -57 119 -211 119 -339 -1 -230 -280 -690 -497
-819 -63 -38 -205 -94 -294 -116 -31 -8 -138 -21 -237 -30 -190 -17 -271 -32
-333 -64 -117 -60 -163 -189 -108 -306 24 -53 111 -141 184 -190 23 -15 42
-35 42 -45 0 -43 -183 -284 -316 -416 -92 -91 -223 -193 -293 -228 -316 -160
-845 -171 -1166 -26 -52 23 -77 45 -165 144 -57 64 -127 132 -156 151 -114 76
-240 64 -322 -30 -54 -61 -79 -143 -91 -299 -8 -93 -10 -101 -38 -126 -94 -84
-519 -194 -857 -222 -122 -10 -165 -9 -311 6 -370 38 -739 129 -1086 267 -120
47 -201 96 -432 261 -229 164 -297 199 -393 206 -86 5 -127 -7 -182 -53 -101
-87 -111 -191 -38 -437 25 -87 46 -172 46 -190 0 -113 -237 -341 -440 -424
-87 -35 -295 -87 -485 -121 -149 -26 -178 -28 -415 -27 -212 0 -280 4 -400 22
-289 45 -581 120 -717 184 -107 50 -284 183 -850 639 -397 320 -550 425 -689
474 -178 63 -326 6 -370 -142 -20 -66 -17 -127 11 -259 l24 -116 -24 -47 c-52
-101 -211 -259 -422 -417 -116 -87 -211 -139 -289 -159 -76 -19 -290 -35 -471
-35 -124 0 -155 4 -255 29 -143 37 -258 84 -428 174 -244 128 -416 240 -615
398 -125 99 -153 127 -254 256 -185 236 -357 336 -507 297 -114 -29 -191 -108
-295 -304 -163 -305 -179 -331 -279 -430 -152 -152 -313 -274 -505 -382 -251
-142 -463 -192 -805 -191 -229 0 -367 30 -542 119 -202 102 -267 182 -523 644
-177 318 -235 408 -309 478 -72 68 -124 91 -204 92 -76 0 -123 -21 -176 -81
-49 -53 -79 -123 -113 -257 l-26 -107 -71 -71 c-248 -247 -691 -524 -1009
-629 -182 -61 -269 -76 -482 -82 -295 -9 -455 15 -595 88 -144 75 -342 247
-477 414 -73 89 -95 129 -153 275 -56 141 -81 187 -131 244 -56 64 -124 96
-205 96 -111 0 -210 -71 -347 -250 -167 -218 -400 -333 -677 -334 -131 -1
-218 14 -340 56 -300 105 -445 255 -571 589 -27 70 -32 102 -36 194 -5 99 -1
130 36 315 50 253 57 326 41 405 -15 75 -31 105 -76 149 -47 46 -120 70 -190
63 -70 -7 -144 -48 -277 -151 -122 -96 -157 -111 -234 -102 -72 8 -111 26
-152 67 -127 129 -148 482 -46 785 37 110 125 286 184 371 82 117 426 381 626
481 22 11 96 31 165 45 69 13 150 34 182 46 210 80 252 257 109 465 -37 54
-40 100 -11 228 36 162 122 340 243 500 70 93 125 139 233 195 211 110 469
151 680 108 107 -22 315 -93 487 -166 175 -75 226 -104 302 -170 70 -61 108
-79 168 -79 184 0 279 210 159 350 -32 38 -37 52 -48 134 -23 157 -19 225 17
292 32 63 127 167 194 214 51 35 115 45 189 30 l56 -11 115 -159 c122 -167
173 -220 243 -251 120 -52 267 8 318 130 26 62 34 114 43 295 9 154 13 183 37
243 54 135 138 256 255 368 99 94 175 150 319 233 196 113 357 173 573 217
164 32 301 40 487 25 309 -23 458 -61 695 -174 331 -158 618 -397 751 -626 34
-58 110 -197 169 -310 121 -231 148 -275 214 -343 111 -117 242 -127 342 -27
58 58 84 133 99 287 9 97 12 109 45 152 80 110 321 313 490 413 168 100 396
160 720 189 353 32 879 -40 1158 -157 224 -95 304 -149 502 -344 94 -92 192
-182 219 -200 55 -37 122 -60 176 -60 49 0 137 47 172 90 36 46 58 135 58 232
0 142 81 346 200 508 169 227 496 503 748 629 311 156 922 324 1362 375 227
26 347 27 560 5z"/>
<path d="M21840 5954 c-45 -19 -77 -50 -100 -94 -32 -63 -33 -98 -5 -200 67
-249 86 -336 104 -480 22 -165 71 -675 71 -732 l0 -34 -307 -40 c-201 -26
-309 -36 -311 -29 -1 5 -29 296 -61 645 -33 349 -65 648 -71 665 -19 50 -57
91 -104 114 -142 66 -306 -36 -306 -191 0 -24 54 -617 119 -1319 128 -1372
121 -1320 183 -1375 94 -86 243 -74 315 24 49 67 49 82 5 557 -22 242 -39 441
-38 442 4 4 609 83 611 80 1 -1 14 -162 29 -357 37 -494 43 -544 65 -588 84
-164 320 -150 387 24 16 43 15 63 -25 597 -87 1142 -127 1566 -167 1762 -21
103 -104 406 -119 435 -17 32 -62 73 -102 94 -40 20 -127 20 -173 0z"/>
<path d="M16134 5794 c-173 -29 -298 -91 -406 -201 -74 -75 -202 -233 -224
-275 -40 -78 -22 -174 48 -245 l40 -41 28 -169 c90 -531 109 -705 170 -1551
27 -363 33 -418 52 -458 24 -53 81 -99 142 -115 87 -23 193 27 236 112 27 51
26 85 -10 584 -17 229 -30 421 -28 426 2 4 30 -9 63 -30 33 -21 164 -93 290
-161 471 -252 524 -285 659 -418 102 -100 131 -144 167 -249 16 -47 40 -101
54 -119 37 -48 98 -77 165 -78 119 0 210 89 210 207 0 43 -52 213 -85 277 -32
63 -103 155 -177 232 -150 154 -259 233 -521 376 -65 36 -116 66 -115 67 2 2
35 15 73 30 205 81 313 211 379 455 55 203 56 411 2 622 -54 213 -126 348
-256 479 -72 74 -99 93 -180 132 -229 111 -527 153 -776 111z m291 -414 c186
-20 316 -69 380 -142 145 -168 194 -481 113 -723 -25 -73 -46 -97 -106 -123
-99 -43 -178 -51 -367 -40 -165 10 -237 6 -296 -17 -13 -5 -18 13 -33 117 -9
68 -42 276 -72 463 l-56 340 50 46 c42 38 63 49 119 63 37 8 86 17 108 19 22
2 47 4 55 5 8 1 56 -3 105 -8z"/>
<path d="M19496 5655 c-92 -26 -177 -76 -246 -144 -58 -56 -76 -84 -128 -191
-100 -207 -159 -414 -182 -635 -6 -55 -13 -224 -17 -375 -10 -474 31 -684 182
-938 94 -158 264 -344 409 -446 163 -116 410 -172 571 -131 166 44 324 192
402 380 74 175 133 640 113 888 -23 285 -109 403 -302 415 -96 6 -146 -6 -333
-78 -82 -32 -162 -61 -176 -65 -40 -10 -100 -64 -120 -109 -55 -121 14 -261
145 -297 50 -14 117 1 268 60 l101 40 -6 -147 c-8 -173 -47 -446 -76 -521 -26
-69 -63 -122 -100 -144 -24 -14 -37 -15 -82 -7 -96 18 -174 65 -274 164 -138
137 -227 283 -266 434 -28 111 -39 340 -28 588 15 339 36 455 118 663 48 122
73 159 117 177 59 25 81 18 183 -55 53 -38 110 -75 126 -83 84 -42 165 -28
236 41 80 78 91 181 27 273 -26 37 -231 181 -314 220 -64 30 -78 33 -184 35
-75 1 -132 -3 -164 -12z"/>
<path d="M14275 5594 c-221 -46 -290 -85 -568 -324 -79 -69 -154 -141 -165
-161 -74 -126 5 -290 151 -315 l40 -6 -6 -117 c-23 -450 -30 -872 -19 -1074
16 -270 57 -673 72 -712 18 -49 79 -103 134 -121 28 -9 62 -25 76 -35 31 -21
328 -130 438 -160 111 -30 382 -38 522 -14 192 32 322 88 412 179 49 49 71 83
122 190 161 335 222 574 186 727 -31 134 -120 285 -238 406 -62 64 -175 156
-203 165 -6 2 6 35 29 78 51 95 69 157 84 290 10 90 9 121 -5 210 -74 479
-290 706 -742 784 -81 14 -270 20 -320 10z m324 -445 c176 -45 236 -104 291
-289 44 -147 36 -308 -18 -372 -37 -43 -116 -92 -217 -133 -79 -32 -98 -35
-295 -51 -116 -9 -213 -14 -216 -11 -3 3 2 169 11 369 8 199 14 380 13 402 -3
36 -1 39 48 67 88 50 228 57 383 18z m316 -1270 c89 -13 134 -39 218 -128 157
-166 157 -224 1 -571 l-67 -149 -48 -20 c-80 -35 -148 -45 -294 -46 -156 0
-166 2 -402 88 l-142 52 -6 40 c-15 111 -36 379 -42 536 l-6 176 179 7 c98 4
213 13 254 20 80 14 232 12 355 -5z"/>
<path d="M23120 5455 c-338 -51 -627 -98 -641 -103 -45 -18 -97 -71 -115 -117
-35 -92 1 -208 79 -256 70 -42 90 -43 359 -3 236 36 251 37 263 20 34 -45 45
-262 51 -951 6 -682 6 -677 73 -738 103 -93 257 -70 328 50 l28 48 3 370 c5
559 -22 1205 -54 1288 -3 10 -5 17 -3 17 36 0 345 54 370 64 70 30 129 121
129 200 0 37 -39 124 -66 148 -33 29 -107 58 -149 57 -22 -1 -317 -43 -655
-94z"/>
<path d="M17749 5472 c-39 -20 -62 -41 -84 -76 -49 -80 -45 -105 93 -561 247
-818 324 -1123 366 -1450 11 -91 11 -103 -6 -140 -32 -73 -22 -138 39 -233 46
-73 109 -112 182 -112 95 1 171 50 206 134 63 150 -14 659 -195 1300 -79 278
-282 959 -306 1023 -22 61 -51 92 -108 119 -68 32 -121 31 -187 -4z"/>
<path d="M6260 5439 c-30 -4 -99 -11 -152 -15 -83 -6 -106 -11 -155 -39 -36
-19 -70 -48 -88 -74 -29 -41 -30 -48 -31 -149 -1 -64 -12 -165 -27 -252 -28
-156 -36 -221 -97 -755 -74 -653 -83 -777 -84 -1075 0 -291 9 -385 54 -515 72
-210 245 -315 544 -331 198 -11 419 46 666 171 142 73 205 123 274 218 140
197 196 385 175 581 -13 107 -68 298 -112 380 -58 108 -174 211 -305 270 -23
10 -42 22 -42 25 0 3 25 19 55 35 116 60 183 142 217 265 62 221 7 652 -113
892 -96 192 -434 383 -666 378 -32 -1 -83 -5 -113 -10z m257 -459 c114 -57
144 -90 176 -192 37 -118 47 -183 54 -349 l6 -145 -27 -21 c-35 -28 -156 -71
-396 -142 -107 -32 -196 -58 -196 -57 -6 4 71 631 93 764 30 188 24 180 139
181 64 1 80 -3 151 -39z m6 -1429 c147 -42 293 -113 323 -158 26 -39 64 -176
71 -253 6 -70 -18 -142 -81 -240 l-46 -71 -123 -59 c-176 -85 -271 -110 -411
-109 -143 1 -156 5 -181 54 -17 35 -20 65 -23 244 -4 181 8 449 25 584 l6 49
161 -4 c147 -3 172 -6 279 -37z"/>
<path d="M8123 5245 c-97 -18 -162 -40 -267 -91 -243 -120 -449 -302 -523
-460 -67 -146 -94 -371 -82 -684 13 -340 59 -549 171 -775 179 -358 477 -687
691 -762 69 -24 210 -23 292 1 150 45 322 163 437 300 66 78 169 279 189 365
22 100 -4 189 -79 273 -107 119 -280 98 -353 -44 -21 -41 -26 -127 -9 -159 29
-52 -123 -239 -242 -298 -98 -50 -109 -47 -221 67 -198 198 -348 445 -402 657
-21 84 -45 228 -45 271 l0 31 143 6 c341 16 585 113 774 309 208 216 232 436
80 733 -76 148 -195 241 -338 264 -80 13 -125 13 -216 -4z m146 -415 c23 -12
73 -122 78 -175 5 -37 1 -45 -42 -93 -63 -70 -120 -108 -213 -142 -100 -36
-205 -52 -318 -48 l-91 3 13 64 c8 36 26 82 41 104 74 106 320 257 468 287 22
4 41 8 43 9 2 1 11 -3 21 -9z"/>
<path d="M12667 5100 c-55 -10 -118 -58 -145 -110 -21 -40 -23 -54 -18 -130 3
-47 17 -159 30 -250 51 -326 52 -380 26 -853 -31 -579 -24 -750 39 -918 60
-158 209 -239 443 -239 129 0 212 16 399 76 154 49 198 78 230 149 62 136 -42
295 -194 295 -24 0 -108 -20 -186 -45 -116 -37 -159 -46 -229 -48 l-87 -2 -3
195 c-2 109 4 314 14 465 25 409 23 628 -10 860 -52 367 -63 424 -90 466 -45
68 -134 104 -219 89z"/>
<path d="M11443 5080 c-100 -14 -177 -37 -252 -75 -80 -40 -136 -87 -245 -205
-60 -66 -80 -94 -92 -137 -23 -80 -6 -143 55 -204 61 -61 124 -78 204 -55 48
14 68 29 158 120 91 91 111 106 158 120 70 21 189 20 263 0 54 -16 61 -21 92
-73 46 -78 127 -294 114 -306 -1 -1 -43 10 -93 27 -117 38 -243 47 -335 24
-262 -68 -632 -372 -759 -624 -48 -94 -61 -168 -62 -348 -1 -190 13 -261 73
-384 34 -67 60 -102 128 -170 47 -47 111 -100 142 -118 171 -101 385 -150 608
-139 287 13 460 121 579 361 157 316 241 921 176 1281 -68 380 -200 678 -353
790 -55 40 -173 89 -252 103 -85 16 -238 22 -307 12z m202 -1184 c62 -16 96
-33 209 -104 l89 -56 -6 -76 c-20 -254 -108 -568 -181 -645 -41 -43 -98 -59
-216 -58 -211 1 -378 77 -440 199 -23 45 -25 60 -25 184 0 131 1 136 29 185
72 123 297 312 434 366 57 22 47 21 107 5z"/>
<path d="M3125 5045 c-168 -31 -319 -104 -434 -210 -176 -162 -413 -611 -477
-905 -26 -119 -26 -493 0 -625 45 -228 158 -506 291 -715 126 -197 305 -337
526 -411 115 -39 231 -44 319 -15 131 44 341 179 460 297 134 133 178 233 249
564 69 325 74 432 29 553 -38 103 -132 175 -263 202 -72 15 -599 6 -655 -12
-141 -43 -194 -224 -98 -334 37 -42 87 -69 145 -79 23 -3 137 -1 253 6 116 6
213 9 217 5 4 -4 0 -42 -9 -84 -9 -42 -30 -142 -47 -222 -36 -170 -52 -216
-91 -266 -41 -50 -131 -121 -228 -178 -73 -42 -87 -47 -120 -41 -49 9 -122 46
-199 101 -75 53 -146 156 -227 325 -111 232 -146 382 -146 618 0 228 21 315
125 529 70 145 148 274 207 344 104 125 302 172 470 112 123 -44 283 -132 396
-217 134 -102 163 -117 227 -117 197 1 288 233 144 366 -93 87 -263 199 -409
272 -283 142 -447 176 -655 137z"/>
<path d="M4920 5014 c-84 -16 -216 -77 -387 -178 -69 -41 -107 -93 -118 -161
-23 -138 118 -269 253 -235 26 6 102 42 169 81 68 38 134 69 148 69 48 0 85
-28 110 -83 36 -77 63 -208 68 -329 l5 -106 -102 53 c-124 66 -189 85 -282 85
-181 0 -373 -117 -459 -281 -78 -150 -113 -383 -95 -639 38 -533 188 -814 505
-946 63 -25 81 -28 175 -28 135 1 235 32 337 103 131 92 191 189 242 392 38
150 79 443 91 654 15 264 13 782 -5 896 -17 118 -65 271 -113 362 -90 173
-250 278 -444 291 -40 2 -84 2 -98 0z m-97 -1235 c37 -20 311 -191 324 -203
22 -20 -16 -404 -63 -641 -22 -110 -44 -148 -97 -174 -64 -31 -106 -28 -160
14 -96 73 -157 273 -173 565 -12 222 20 384 85 427 38 26 53 28 84 12z"/>
</g>
</svg>
