<?xml version="1.0" standalone="no"?>
<!DOCTYPE svg PUBLIC "-//W3C//DTD SVG 20010904//EN"
 "http://www.w3.org/TR/2001/REC-SVG-20010904/DTD/svg10.dtd">
<svg version="1.0" xmlns="http://www.w3.org/2000/svg"
 width="2560.000000pt" height="1930.000000pt" viewBox="0 0 2560.000000 1930.000000"
 preserveAspectRatio="xMidYMid meet">
<metadata>
Created by potrace 1.15, written by Peter Selinger 2001-2017
</metadata>
<g transform="translate(0.000000,1930.000000) scale(0.100000,-0.100000)"
fill="#000000" stroke="none">
<path d="M2730 19183 c-410 -5 -1218 -24 -1420 -34 -118 -6 -312 -14 -430 -18
-178 -6 -221 -10 -250 -25 -72 -38 -106 -85 -131 -186 -21 -83 -16 -372 11
-665 31 -347 32 -625 2 -840 -36 -250 -166 -990 -188 -1065 -3 -11 -14 -15
-43 -12 -75 7 -70 60 -81 -889 -11 -897 -18 -1134 -50 -1503 -11 -127 -25
-307 -31 -401 -14 -211 -14 -1336 1 -2050 5 -286 17 -864 25 -1285 8 -421 17
-848 20 -950 34 -1127 51 -1381 144 -2050 89 -639 105 -862 91 -1234 -15 -388
-55 -853 -95 -1106 -38 -243 -44 -335 -56 -787 -7 -296 -7 -574 0 -921 18
-848 37 -1046 152 -1577 88 -405 90 -420 99 -810 6 -290 10 -361 25 -413 45
-161 149 -187 638 -163 194 10 326 10 572 2 398 -14 520 -24 662 -57 l112 -27
118 18 c195 30 296 30 494 0 319 -49 498 -46 1494 25 673 48 1025 67 1386 76
l275 7 -4 -34 c-4 -41 23 -71 63 -71 33 -1 48 13 71 63 l18 42 481 -7 c264 -4
775 -14 1135 -22 360 -8 1044 -17 1520 -21 1060 -7 1190 -2 2305 87 899 72
1129 80 1365 46 229 -32 293 -36 625 -36 605 0 1445 48 1832 105 197 29 260
31 396 9 119 -19 260 -15 417 11 133 22 329 16 695 -20 143 -14 352 -35 465
-46 296 -29 739 -35 1245 -15 542 21 621 21 790 -6 131 -21 173 -22 650 -23
281 0 814 4 1186 9 618 8 694 7 880 -9 l204 -18 154 23 c132 20 175 22 300 16
80 -3 160 -8 176 -10 159 -21 341 -28 540 -20 287 12 455 10 481 -4 40 -21
200 -34 434 -34 220 0 335 9 394 32 18 6 33 5 51 -4 30 -16 57 -11 78 12 19
22 30 577 17 852 -9 205 -22 284 -70 440 -94 309 -142 1005 -111 1650 34 745
35 796 16 1047 -24 315 -18 466 65 1728 92 1402 99 1587 77 1945 -36 568 -10
1750 54 2445 11 121 40 396 64 610 81 713 99 913 115 1269 12 260 2 806 -26
1371 -8 171 -18 517 -21 770 -6 490 -2 601 42 1020 13 127 30 286 37 355 21
205 16 665 -10 907 -75 692 -196 1306 -352 1788 -120 369 -184 460 -348 494
-64 13 -423 14 -577 1 -60 -5 -177 -12 -260 -16 -143 -6 -155 -5 -255 22 -98
26 -120 28 -341 32 -130 2 -427 -4 -660 -12 -468 -18 -845 -20 -1104 -6 -765
40 -1000 38 -2075 -21 -764 -41 -1083 -47 -1370 -24 -252 20 -333 17 -533 -20
-180 -33 -261 -42 -493 -56 -313 -18 -524 -8 -1459 71 -801 67 -1052 75 -1450
46 -409 -29 -498 -27 -1157 29 -519 45 -802 53 -1257 34 -452 -18 -669 -17
-861 6 -107 12 -220 18 -365 17 -207 -1 -310 -7 -1054 -57 -701 -48 -1004 -48
-1736 1 -451 30 -845 37 -1033 17 -128 -13 -214 -7 -492 32 -96 13 -215 30
-265 36 -57 8 -259 13 -550 14 -379 1 -480 4 -575 18 -63 10 -200 22 -305 27
-164 8 -1245 10 -1815 3z m1800 -133 c107 -5 247 -17 310 -27 95 -14 195 -17
570 -19 467 -1 499 -3 820 -49 276 -40 367 -46 509 -32 182 17 569 13 926 -12
885 -60 1079 -59 2005 4 777 54 990 59 1240 29 183 -22 432 -23 890 -5 453 18
698 11 1220 -33 703 -60 837 -62 1260 -25 169 14 524 12 775 -6 121 -8 461
-35 755 -60 738 -61 895 -69 1155 -61 259 7 458 26 645 60 208 37 263 40 510
21 291 -23 646 -16 1400 24 1076 58 1239 60 1930 26 383 -19 725 -19 1250 1
234 8 524 14 645 12 202 -4 228 -6 315 -31 113 -32 198 -34 485 -12 221 17
563 20 617 5 92 -26 141 -114 242 -432 105 -331 169 -607 240 -1038 87 -524
120 -849 120 -1185 0 -250 -3 -289 -58 -830 -54 -526 -56 -741 -14 -1680 16
-351 22 -629 22 -1035 1 -618 -3 -681 -85 -1405 -93 -818 -103 -929 -124
-1305 -37 -682 -52 -1438 -35 -1740 27 -495 28 -552 19 -790 -11 -281 -36
-722 -79 -1360 -79 -1177 -91 -1480 -69 -1740 16 -203 14 -456 -7 -880 -20
-389 -22 -896 -6 -1110 27 -349 63 -595 108 -748 68 -228 66 -209 71 -680 l5
-432 -30 0 c-31 0 -72 -38 -72 -66 0 -12 -50 -14 -282 -13 -296 1 -351 5 -458
34 -61 17 -87 17 -385 6 -283 -11 -340 -11 -490 4 -311 30 -463 31 -635 5
l-152 -23 -191 18 c-175 16 -254 17 -897 9 -388 -5 -923 -9 -1190 -9 -422 1
-497 3 -580 18 -144 27 -372 31 -827 13 -704 -27 -876 -23 -1463 35 -682 67
-804 72 -1010 39 -149 -24 -232 -25 -360 -5 -138 21 -224 19 -457 -14 -191
-27 -389 -44 -818 -71 -615 -37 -1280 -38 -1530 -2 -209 31 -326 35 -580 23
-215 -11 -363 -22 -1165 -85 -769 -61 -766 -61 -1770 -60 -540 0 -1243 7
-1665 17 -401 9 -929 19 -1172 23 -244 4 -443 10 -443 14 0 3 32 76 71 161
275 600 359 845 564 1649 204 799 231 885 405 1277 106 236 159 382 182 492
12 59 15 65 48 78 61 26 101 64 127 121 35 74 30 176 -14 278 l-29 70 28 105
c114 418 162 632 197 889 27 190 63 336 128 514 90 249 101 289 118 459 18
176 27 214 99 414 67 183 91 265 161 543 90 362 125 564 125 727 l0 103 60 30
c156 79 206 187 146 315 -21 46 -92 126 -131 148 -11 6 -13 12 -6 20 14 18 40
115 50 188 6 42 26 103 60 176 99 217 119 334 146 863 17 339 24 395 70 616
19 89 31 170 29 180 -11 43 115 507 159 587 19 34 24 37 63 37 89 0 257 -45
509 -137 219 -80 351 -145 370 -183 47 -92 22 -415 -66 -855 -112 -558 -205
-875 -726 -2465 -434 -1327 -492 -1529 -629 -2165 -26 -121 -53 -247 -60 -280
-22 -99 -33 -253 -49 -641 -28 -699 -39 -769 -294 -1809 -149 -608 -195 -846
-251 -1290 -41 -330 -52 -486 -57 -800 -5 -315 -5 -320 15 -339 28 -24 72 -24
92 2 15 18 18 63 23 324 8 394 37 695 113 1173 43 273 68 387 204 945 248
1018 263 1111 290 1845 19 512 33 596 124 746 61 100 63 118 20 155 l-25 20
31 140 c97 439 202 790 565 1894 418 1270 578 1793 673 2200 100 426 149 720
159 956 10 251 -17 330 -139 403 l-57 33 19 27 c41 58 87 360 77 501 -10 141
-53 207 -180 284 -48 28 -55 35 -39 40 24 8 36 40 51 134 16 104 14 135 -12
173 -36 54 -98 89 -234 135 -114 38 -128 45 -135 69 -17 67 -80 87 -117 38
l-21 -26 -208 47 c-258 59 -243 54 -210 72 16 8 37 32 48 53 67 132 339 1039
405 1354 83 392 71 581 -35 537 -59 -25 -113 -133 -373 -760 -357 -858 -417
-987 -494 -1063 -44 -42 -52 -47 -81 -41 -31 6 -33 9 -30 45 2 47 -23 79 -63
79 -31 0 -69 -40 -69 -73 0 -22 15 -23 -255 14 -83 11 -238 23 -347 26 l-196
6 -64 -30 c-51 -24 -81 -49 -158 -134 -109 -119 -146 -166 -151 -194 -3 -15
-14 -21 -44 -23 -80 -6 -147 -22 -177 -43 -17 -12 -54 -59 -83 -103 -77 -120
-295 -516 -295 -537 0 -23 10 -23 -104 2 -87 19 -100 19 -144 6 l-49 -14 -25
174 c-28 192 -39 216 -92 211 -17 -2 -37 -13 -47 -28 -18 -24 -18 -29 10 -213
29 -187 42 -227 77 -227 8 0 1 -31 -22 -96 -22 -60 -57 -209 -93 -393 -60
-302 -92 -439 -113 -488 -7 -16 -27 -43 -46 -60 -31 -29 -34 -37 -30 -75 4
-35 -6 -69 -48 -176 -30 -72 -65 -169 -79 -215 -22 -75 -145 -572 -145 -589 0
-5 -4 -8 -9 -8 -4 0 -11 31 -14 69 -3 39 -11 79 -17 90 -23 44 -104 35 -116
-13 -3 -13 1 -81 9 -150 15 -135 29 -166 73 -166 l24 0 -39 -108 c-21 -59 -61
-163 -90 -231 -152 -362 -186 -460 -337 -993 -111 -392 -181 -618 -220 -705
-12 -29 -50 -95 -83 -146 -34 -52 -61 -101 -61 -109 0 -18 -139 -43 -320 -58
-151 -13 -548 -12 -725 0 -267 19 -364 45 -482 129 -31 23 -67 41 -80 41 -52
0 -82 -71 -45 -108 36 -36 162 -113 215 -131 152 -53 446 -75 867 -68 328 6
469 21 660 71 155 41 380 133 589 242 211 110 310 184 375 283 53 79 84 154
136 325 21 70 40 129 42 131 8 7 182 54 186 51 2 -3 -1 -51 -7 -108 -14 -125
-2 -189 41 -221 25 -19 32 -19 81 -8 30 6 94 32 141 56 48 25 89 45 91 45 2 0
1 -57 -1 -127 -6 -145 0 -167 56 -196 39 -20 92 -17 209 9 35 8 65 14 66 12 1
-2 7 -45 13 -97 6 -51 18 -104 27 -118 20 -30 60 -46 103 -41 17 2 32 2 32 -1
0 -25 -250 -309 -445 -506 -247 -249 -426 -385 -645 -489 -183 -86 -376 -141
-815 -230 -572 -116 -719 -136 -1060 -143 -488 -10 -778 33 -1249 187 -224 73
-305 109 -417 183 -187 124 -275 215 -340 353 -55 116 -72 197 -72 339 0 121
7 174 44 341 19 89 21 92 65 124 69 49 77 95 25 132 -18 13 -18 18 25 133 88
238 155 351 354 595 l115 141 5 -88 c6 -103 22 -135 74 -153 68 -22 139 18
208 120 17 25 17 24 18 -50 0 -102 15 -147 61 -194 34 -33 43 -38 71 -32 18 3
53 20 77 36 l46 29 35 -34 c66 -64 128 -51 191 39 29 41 33 43 59 33 34 -13
76 10 85 46 5 19 17 25 69 35 35 6 84 20 109 31 38 16 51 18 76 8 42 -16 76 2
91 49 8 24 36 59 78 98 68 64 242 259 242 272 0 11 115 189 172 267 45 61 53
67 86 67 46 0 72 24 72 67 0 29 7 39 67 82 78 57 190 115 257 132 47 12 162 8
199 -6 28 -11 48 -61 54 -134 5 -61 3 -72 -18 -100 l-23 -31 23 -56 c30 -71
24 -138 -22 -244 -66 -152 -156 -254 -312 -356 -108 -70 -179 -104 -314 -149
-122 -42 -149 -63 -137 -110 4 -14 17 -32 31 -41 23 -15 29 -14 107 12 379
126 634 325 741 580 38 90 57 163 57 216 0 27 5 58 11 69 12 23 -12 267 -33
334 -7 22 -32 60 -56 85 -37 38 -41 46 -28 56 23 16 296 393 350 484 118 194
164 474 153 920 -9 336 -47 612 -108 788 -45 126 -137 302 -244 464 l-94 141
30 74 c17 40 35 76 41 79 5 3 46 -15 90 -41 88 -51 147 -75 185 -75 34 0 70
41 84 95 l12 47 46 -45 c61 -59 90 -77 121 -77 44 0 90 65 90 126 0 34 10 30
60 -22 64 -66 119 -104 151 -104 35 0 67 39 75 92 4 21 12 38 19 38 7 0 33
-51 58 -112 93 -231 188 -443 204 -455 26 -20 51 -16 79 13 33 32 34 28 -73
278 -167 393 -189 467 -154 522 29 47 80 81 160 109 40 13 88 34 107 45 62 39
221 238 290 364 34 63 38 79 42 156 4 71 1 95 -15 131 -58 129 -158 183 -368
195 -137 9 -265 -8 -338 -44 -32 -16 -56 -24 -53 -18 3 6 27 61 54 121 166
368 216 626 150 767 -59 127 -171 201 -303 202 -61 1 -78 -3 -132 -33 -87 -47
-237 -173 -304 -257 -162 -198 -261 -411 -314 -669 -9 -44 -19 -91 -22 -105
-4 -16 -14 21 -29 110 -31 176 -55 254 -115 375 -58 117 -122 204 -181 242
-33 22 -53 28 -98 28 -69 0 -119 -30 -186 -114 -112 -142 -174 -328 -176 -528
-2 -111 16 -192 107 -504 30 -103 55 -192 55 -197 0 -7 -17 -4 -44 7 -63 28
-179 44 -283 40 -84 -4 -94 -6 -129 -35 -91 -73 -117 -218 -62 -336 39 -83
133 -172 246 -231 75 -40 128 -57 304 -101 117 -29 234 -64 260 -76 64 -30
110 -83 102 -116 -8 -33 19 -74 51 -74 19 0 35 -15 73 -72 177 -265 257 -442
297 -658 44 -241 65 -657 46 -885 -24 -271 -51 -379 -129 -513 -53 -93 -252
-370 -297 -416 -17 -17 -45 -52 -63 -78 -32 -47 -34 -48 -85 -48 -73 0 -158
-24 -252 -70 -78 -38 -225 -139 -253 -173 -10 -12 -19 -14 -38 -6 -68 25 -173
1 -225 -54 -32 -32 -66 -113 -81 -189 l-14 -67 -66 117 c-81 142 -104 200
-128 317 -32 158 -34 175 -16 175 25 0 97 71 117 115 10 22 19 60 19 85 l0 44
53 -52 c124 -122 309 -124 438 -4 60 55 88 109 110 212 l10 48 292 5 c326 6
361 11 407 64 54 61 32 143 -53 202 -23 16 -98 56 -167 91 -146 73 -190 109
-190 157 0 23 5 33 16 33 35 0 163 70 214 117 98 90 148 221 134 352 -10 103
-59 284 -94 349 -41 78 -122 159 -189 190 -112 52 -280 7 -377 -102 -25 -27
-52 -63 -61 -79 -18 -36 -35 -24 -39 28 -4 44 -53 162 -99 237 -36 57 -36 58
-22 105 15 51 10 80 -17 102 -13 11 -29 12 -75 4 -50 -8 -62 -7 -81 9 -12 10
-55 37 -97 60 -72 42 -77 47 -175 190 -106 156 -130 182 -184 197 -79 22 -130
-19 -180 -143 l-27 -68 -66 103 c-146 230 -227 344 -260 366 -61 41 -148 21
-166 -38 -6 -18 -10 -15 -34 23 -79 122 -143 178 -205 178 -34 0 -46 -6 -81
-43 -55 -58 -98 -162 -191 -464 -130 -424 -142 -450 -219 -494 -30 -17 -66
-44 -79 -60 -44 -51 -43 -77 2 -286 4 -19 0 -23 -21 -23 -16 0 -34 -10 -47
-27 -40 -50 -16 -153 73 -326 23 -45 43 -84 45 -87 1 -4 -35 -6 -80 -6 -68 0
-92 -5 -133 -25 -139 -67 -235 -242 -235 -427 0 -201 98 -406 241 -501 68 -46
198 -90 273 -93 l56 -2 -26 -41 c-57 -92 -104 -199 -104 -239 0 -41 22 -76 48
-76 10 0 12 -6 7 -17 -29 -71 -105 -299 -115 -346 -21 -102 19 -158 104 -144
l34 5 -15 -36 c-8 -20 -24 -54 -34 -74 -20 -38 -25 -79 -11 -92 4 -4 7 -75 7
-158 l0 -150 27 -23 c19 -16 34 -21 50 -17 20 5 19 1 -12 -37 -201 -247 -291
-411 -388 -702 -35 -109 -68 -191 -86 -213 -108 -143 -283 -567 -410 -996 -74
-250 -127 -517 -147 -737 -6 -70 -15 -136 -21 -146 -5 -11 -6 -31 -3 -45 4
-15 7 -117 6 -227 -3 -238 11 -419 45 -604 55 -306 110 -476 206 -638 113
-189 348 -468 480 -568 141 -107 396 -205 673 -259 424 -83 468 -89 625 -83
127 6 204 14 287 32 19 5 12 -11 -48 -102 -81 -123 -92 -145 -126 -263 -29
-100 -21 -86 -235 -408 -121 -182 -190 -299 -247 -415 -92 -188 -247 -572
-421 -1042 -67 -181 -153 -413 -192 -515 -51 -135 -68 -193 -64 -214 5 -26 4
-28 -17 -22 -165 47 -827 77 -1264 56 -268 -13 -402 -10 -461 11 -45 15 -51
60 -58 391 -6 362 -14 446 -65 689 -22 107 -53 259 -70 339 -99 476 -125 944
-116 2044 6 680 11 775 52 1036 42 266 89 839 101 1225 9 314 -9 534 -96 1165
-100 732 -122 1075 -150 2400 -6 272 -17 819 -26 1215 -8 396 -18 1100 -21
1565 -6 881 -2 1046 37 1504 33 393 39 550 50 1299 l11 726 27 28 c22 22 31
44 41 103 6 41 41 230 77 420 73 383 133 735 161 940 25 187 23 516 -5 854
-24 283 -28 505 -11 600 18 107 34 116 211 116 73 0 198 5 278 10 583 37 2917
64 3410 40z m1679 -4420 c85 -24 147 -98 158 -188 17 -148 -115 -527 -284
-811 -128 -215 -146 -268 -105 -303 49 -42 82 -27 224 107 62 58 132 118 155
131 90 54 378 56 471 4 87 -49 108 -148 53 -253 -38 -72 -130 -197 -199 -269
-45 -47 -66 -61 -121 -79 -92 -30 -140 -60 -198 -123 -55 -60 -79 -122 -70
-185 5 -38 4 -39 -35 -50 -25 -8 -45 -23 -57 -41 l-17 -29 -59 59 c-68 69
-130 99 -165 80 -24 -13 -59 -82 -60 -117 0 -13 -3 -23 -6 -23 -4 0 -28 22
-54 48 -26 27 -65 57 -86 67 -34 16 -41 16 -64 4 -32 -19 -52 -59 -59 -125
l-6 -52 -65 38 c-77 46 -161 74 -195 66 -37 -9 -78 -49 -110 -109 l-29 -55
-40 34 c-52 44 -111 66 -346 125 -237 59 -319 96 -407 184 -44 45 -64 73 -73
105 -20 72 5 141 57 161 42 16 198 -8 277 -43 98 -43 135 -46 170 -16 56 47
49 117 -38 425 -82 287 -90 329 -83 452 7 125 24 196 74 298 40 82 124 183
153 183 46 0 169 -189 218 -335 12 -33 37 -159 57 -280 20 -121 41 -240 47
-263 29 -118 124 -138 169 -37 11 25 40 145 64 267 53 260 61 290 125 423 91
189 195 322 340 438 73 59 140 96 170 97 8 0 30 -4 49 -10z m1618 -1840 c2
-52 -89 -250 -115 -250 -9 0 -57 7 -107 15 -49 8 -105 15 -122 15 -20 0 -33 5
-33 13 0 19 167 199 208 224 29 18 52 23 102 23 l66 0 1 -40z m468 -1 c77 -11
140 -21 142 -22 3 -4 -75 -288 -81 -294 -8 -8 -331 14 -422 28 l-72 11 54 114
c30 63 60 133 66 155 l13 41 80 -6 c44 -4 143 -16 220 -27z m568 -96 l187 -35
0 -134 c0 -101 -3 -134 -12 -134 -7 0 -92 14 -188 30 -96 16 -213 33 -258 36
-49 4 -86 12 -88 19 -4 9 32 159 62 256 5 19 -4 20 297 -38z m590 -129 l147
-36 0 -125 c0 -123 0 -125 -21 -120 -12 3 -107 23 -210 44 l-189 38 0 132 0
131 63 -14 c34 -8 128 -31 210 -50z m-6433 -46 c85 -135 139 -190 183 -186 36
3 77 54 77 95 0 15 5 23 12 21 7 -3 60 -81 119 -174 210 -335 290 -369 389
-167 25 51 48 93 51 93 7 0 129 -184 129 -194 0 -2 -10 -6 -22 -8 -12 -2 -29
-15 -38 -30 -13 -25 -13 -31 0 -55 22 -39 63 -57 92 -42 13 7 27 18 31 26 7
11 14 9 38 -11 16 -14 52 -37 79 -52 28 -15 50 -31 50 -36 0 -5 -12 -27 -27
-49 -24 -37 -28 -39 -34 -21 -11 28 -45 45 -76 37 -18 -4 -32 -21 -52 -68 -15
-34 -65 -146 -111 -249 l-84 -188 -26 17 c-81 54 -315 177 -370 194 -49 16
-110 23 -243 29 -98 5 -185 6 -193 3 -34 -13 -37 -88 -5 -107 6 -4 51 -16 102
-27 81 -17 157 -45 147 -54 -1 -1 -58 11 -125 28 -117 30 -122 31 -141 14 -26
-24 -33 -62 -15 -86 7 -11 40 -30 73 -42 33 -12 60 -23 60 -25 0 -2 -13 -23
-30 -47 -53 -79 -72 -135 -77 -233 -6 -107 6 -169 52 -269 41 -91 102 -148
182 -171 62 -18 227 -25 277 -11 27 7 28 6 22 -15 -4 -13 -10 -50 -13 -83 -5
-55 -3 -63 20 -87 33 -36 69 -36 97 -1 15 19 19 35 15 54 -9 39 12 107 41 136
25 25 28 25 119 18 86 -6 95 -5 114 14 51 51 9 105 -89 116 -33 4 -60 9 -60
12 0 2 11 23 24 46 14 23 32 65 41 94 l17 52 39 -48 c21 -27 63 -64 93 -83 32
-19 55 -39 54 -48 -4 -32 12 -67 36 -78 20 -9 36 -7 83 9 35 12 70 18 89 14
47 -8 94 -68 94 -119 0 -55 71 -86 112 -49 35 32 16 132 -42 213 l-21 29 43
22 c24 12 58 33 76 47 18 14 34 23 36 21 2 -2 32 -40 66 -84 96 -122 148 -173
225 -216 39 -21 95 -57 125 -79 30 -22 114 -70 185 -106 72 -37 144 -76 160
-88 l30 -21 -45 -7 c-25 -3 -153 -7 -284 -7 -231 -1 -241 0 -262 20 -31 29
-73 28 -98 -3 -19 -23 -31 -26 -124 -32 -319 -21 -818 -170 -1032 -308 -97
-63 -245 -205 -303 -292 -16 -24 -39 -44 -59 -50 -18 -6 -39 -23 -47 -37 -12
-22 -12 -29 0 -55 14 -27 12 -36 -17 -119 -73 -208 -79 -322 -28 -537 l26
-107 -38 -33 c-20 -18 -61 -67 -91 -110 -30 -43 -56 -78 -57 -78 -1 0 0 66 2
146 7 219 -14 284 -91 284 -41 0 -84 -26 -152 -91 l-60 -58 6 77 c4 42 5 86 3
97 -3 12 23 80 62 163 70 151 75 182 37 224 -29 33 -72 23 -125 -29 -26 -26
-50 -44 -54 -40 -3 3 5 39 19 79 14 40 49 138 76 218 54 152 61 201 36 238
-14 19 -14 25 0 53 9 17 46 65 82 106 64 73 65 76 59 119 -6 43 -5 43 14 24
27 -27 56 -25 85 5 30 29 30 32 4 97 -18 44 -23 80 -26 213 -5 177 2 189 37
60 45 -168 51 -185 75 -201 41 -27 95 5 95 54 -1 37 -96 370 -111 389 -9 10
-25 14 -51 11 l-38 -4 0 68 c0 58 -3 69 -22 82 -33 23 -64 19 -87 -10 -12 -15
-21 -22 -21 -16 0 7 -39 56 -86 109 -70 80 -98 121 -145 218 -64 129 -70 155
-40 155 30 0 61 47 61 91 0 21 -11 84 -25 141 -14 57 -25 109 -25 115 0 7 18
22 40 33 124 63 141 100 320 670 72 230 108 320 129 320 3 0 35 -46 71 -102z
m6843 -68 c45 -17 93 -39 106 -49 l25 -19 -19 -86 c-13 -63 -15 -93 -8 -109
10 -21 4 -20 -123 22 -119 39 -132 46 -124 62 6 10 10 63 10 119 l0 102 25 -6
c14 -4 62 -20 108 -36z m-2123 -50 c179 -30 296 -43 435 -50 391 -21 486 -30
715 -69 774 -132 1174 -253 1236 -372 8 -17 18 -52 21 -78 7 -64 -13 -264 -38
-369 -10 -46 -19 -94 -19 -107 l0 -24 -47 20 c-94 40 -360 131 -468 160 -66
18 -148 32 -205 36 -88 5 -97 3 -129 -18 -69 -48 -133 -206 -206 -504 -20 -82
-48 -192 -62 -243 -19 -68 -23 -98 -16 -114 7 -15 5 -43 -4 -88 -28 -135 -42
-251 -53 -435 -33 -591 -43 -689 -81 -807 -12 -35 -50 -128 -86 -207 -55 -120
-64 -149 -59 -180 5 -34 -8 -111 -20 -111 -2 0 -36 18 -75 40 -94 53 -208 103
-299 130 -58 17 -110 23 -227 27 l-151 5 56 48 c125 105 197 202 227 307 11
39 28 66 56 92 22 21 39 47 39 59 0 22 -27 56 -50 64 -6 2 -16 25 -21 52 -13
70 -45 128 -100 182 -27 27 -49 56 -49 64 0 42 63 188 254 585 150 313 207
443 210 475 2 25 9 79 16 120 15 91 8 264 -15 337 -19 64 -55 108 -99 123 -20
6 -99 10 -197 9 -205 -3 -441 32 -854 127 -123 28 -441 121 -532 155 -21 8
-21 10 31 101 29 51 94 168 146 260 101 182 139 234 173 242 69 15 312 -4 547
-44z m-1070 -649 c80 -21 232 -66 339 -100 276 -87 681 -174 1001 -215 79 -10
157 -13 247 -9 l131 6 11 -39 c35 -132 21 -316 -35 -452 -19 -45 -34 -88 -34
-95 0 -7 -81 -183 -181 -391 -99 -208 -187 -404 -195 -435 -8 -31 -18 -59 -22
-63 -4 -4 -27 -2 -52 4 -25 6 -108 12 -185 12 -163 1 -219 -11 -362 -79 -123
-58 -189 -103 -289 -197 -151 -144 -201 -226 -304 -507 -30 -80 -55 -140 -56
-135 -1 5 -14 49 -28 97 -44 145 -117 202 -256 202 -138 0 -278 -111 -366
-290 l-49 -100 0 -105 c1 -76 10 -151 34 -275 37 -189 40 -313 8 -338 -8 -6
-36 -82 -62 -167 -99 -332 -135 -393 -288 -496 -128 -87 -597 -308 -614 -290
-3 3 4 17 15 33 71 101 124 255 296 858 143 505 165 571 287 867 167 406 185
461 284 883 32 132 77 302 102 377 42 130 46 137 74 143 46 10 63 45 55 113
-6 52 -2 69 33 164 50 131 77 239 136 536 75 378 120 522 163 522 9 0 82 -18
162 -39z m-2278 -302 c56 -28 104 -84 148 -172 55 -110 55 -164 0 -275 -78
-155 -172 -221 -330 -230 -77 -4 -94 -2 -134 18 -58 27 -120 97 -140 157 -21
61 -20 72 7 93 13 10 36 51 52 92 26 65 42 87 159 209 127 133 132 136 166
131 19 -3 52 -13 72 -23z m667 7 c38 -20 93 -83 119 -138 38 -76 72 -232 72
-322 0 -68 -4 -91 -26 -134 -31 -62 -88 -112 -170 -148 -84 -37 -156 -42 -219
-14 -27 13 -65 26 -84 29 -20 3 -40 16 -50 30 l-16 24 134 -6 c132 -6 133 -5
158 19 19 19 23 31 18 51 -11 47 -38 56 -200 66 l-40 2 103 78 c115 88 134
113 109 150 -32 49 -84 39 -190 -37 l-67 -48 0 84 0 84 60 92 c59 89 82 110
155 139 42 16 101 16 134 -1z m-1632 -345 c99 -27 208 -55 242 -62 l61 -12 0
-46 c-1 -128 -61 -278 -134 -332 -23 -16 -72 -39 -111 -51 -63 -19 -78 -20
-157 -10 -99 12 -129 28 -163 86 -60 105 -72 255 -25 346 32 63 81 130 95 130
7 0 93 -22 192 -49z m-1036 -315 c65 -15 97 -35 198 -130 41 -37 88 -73 103
-78 20 -7 27 -15 24 -25 -3 -8 -6 -18 -6 -21 0 -4 -87 -7 -194 -7 -182 0 -196
-1 -223 -21 -33 -24 -41 -65 -18 -87 20 -20 78 -37 128 -37 20 0 37 -3 37 -7
0 -5 -11 -35 -25 -68 -30 -73 -31 -109 -5 -135 43 -43 96 -13 118 67 10 32 24
50 62 77 27 19 57 47 66 61 9 14 25 25 35 25 17 0 19 -8 19 -89 0 -50 -4 -92
-9 -95 -4 -3 -20 -39 -36 -81 -33 -93 -63 -117 -146 -123 -62 -5 -167 23 -226
59 -118 73 -201 261 -190 433 9 130 81 249 173 281 48 17 47 17 115 1z m2199
-805 c0 -63 -54 -145 -114 -172 -90 -41 -165 -20 -241 67 l-55 62 67 16 c110
24 228 42 301 45 35 1 42 -2 42 -18z m-597 -168 c-6 -96 -24 -127 -77 -131
-52 -5 -138 23 -192 61 l-46 32 52 24 c55 25 238 90 256 90 7 1 10 -24 7 -76z
m3620 -58 c-45 -128 -19 -251 71 -340 68 -67 140 -90 255 -82 l81 5 -30 -43
c-36 -52 -104 -113 -190 -171 -67 -45 -171 -85 -345 -131 -107 -29 -145 -54
-145 -96 0 -13 9 -32 21 -43 29 -26 94 -24 314 11 150 24 211 29 365 29 l185
0 90 -33 c50 -18 116 -47 149 -63 l58 -30 -30 -31 c-94 -100 -127 -271 -74
-390 l20 -45 -51 -8 c-156 -22 -336 4 -491 71 -93 41 -145 52 -174 36 -24 -13
-36 -55 -22 -81 5 -10 81 -61 167 -112 194 -115 289 -200 378 -341 l18 -28
-27 11 c-83 31 -193 -5 -268 -89 -56 -62 -78 -120 -85 -227 -7 -96 16 -188 67
-268 l31 -48 -28 6 c-80 19 -245 132 -499 342 -146 121 -172 137 -207 137 -57
0 -77 -70 -32 -113 25 -23 32 -55 17 -75 -4 -6 -23 -16 -43 -22 l-36 -10 -6
63 c-9 89 -26 142 -55 165 -31 24 -124 26 -223 3 -39 -9 -73 -14 -75 -11 -3 2
0 33 6 68 15 95 13 205 -5 239 -31 59 -106 53 -248 -20 -55 -28 -101 -49 -103
-48 -1 2 2 42 8 91 13 116 5 172 -33 210 -29 29 -32 29 -107 25 -42 -3 -84 -9
-93 -12 -14 -6 -15 -1 -8 45 9 58 3 114 -36 318 -14 73 -25 134 -25 135 0 0
42 1 93 1 72 0 101 4 132 20 82 41 119 140 120 317 0 107 1 115 17 107 49 -26
80 -165 76 -338 -2 -107 0 -132 15 -154 35 -54 93 -43 136 26 12 19 57 133
100 253 95 267 132 354 176 429 120 198 348 362 570 409 58 13 60 12 66 -8 3
-12 -1 -39 -8 -61z m282 60 c71 -19 117 -52 156 -113 25 -40 29 -56 29 -117
l0 -71 -40 -23 c-28 -15 -64 -24 -113 -28 -62 -4 -78 -1 -116 19 -83 43 -108
148 -63 263 10 28 22 58 25 68 8 21 43 22 122 2z m-4422 -354 c-41 -65 -87
-94 -142 -88 -23 3 -50 12 -59 20 -14 15 -13 20 13 59 15 24 69 84 119 133
l91 90 3 -84 c3 -78 1 -88 -25 -130z m2863 -406 c-7 -84 -21 -139 -42 -160
-16 -16 -86 -20 -143 -9 -23 5 -31 12 -31 28 1 56 89 197 158 250 l47 37 8
-38 c5 -21 6 -69 3 -108z m-2261 -220 c92 -71 91 -70 73 -96 -35 -51 -146
-164 -154 -156 -5 5 -10 71 -12 149 l-4 140 33 -7 c19 -4 48 -18 64 -30z
m4642 -211 c99 -81 110 -153 29 -203 -45 -28 -56 -26 -56 9 0 35 -31 70 -60
70 -36 0 -70 -44 -70 -90 0 -37 -2 -41 -22 -38 -50 7 -61 134 -18 218 34 66
52 79 105 75 36 -3 57 -13 92 -41z m-5052 -49 c50 -24 131 -107 121 -124 -13
-20 -105 -36 -201 -34 -129 3 -161 12 -156 44 7 53 60 127 101 142 24 9 82 -3
135 -28z m4905 -437 c0 -89 -20 -223 -62 -427 -34 -166 -32 -165 -62 -37 -27
119 -119 279 -238 418 -59 68 -60 70 -31 64 41 -9 222 10 308 33 39 10 73 19
78 20 4 0 7 -32 7 -71z m-371 -428 c63 -32 99 -75 121 -146 17 -57 18 -75 10
-137 -15 -105 -46 -145 -147 -188 l-44 -19 -43 40 c-24 22 -58 68 -77 102 -31
58 -34 70 -34 148 0 72 4 92 25 130 29 52 81 90 122 90 16 0 46 -9 67 -20z
m-818 -301 c21 -43 25 -113 8 -174 -6 -22 -32 -101 -59 -175 -66 -184 -75
-225 -105 -450 -28 -212 -42 -279 -75 -355 l-22 -50 -20 53 c-24 63 -74 117
-137 146 -36 16 -66 21 -136 21 -105 0 -149 -11 -229 -60 -32 -19 -71 -35 -86
-35 -35 0 -51 -19 -61 -74 -4 -25 -36 -93 -70 -152 -73 -127 -128 -244 -159
-337 -21 -62 -22 -80 -17 -205 4 -75 10 -154 13 -175 l7 -38 -149 76 c-104 53
-171 80 -221 90 -253 52 -643 64 -848 27 -150 -28 -278 -62 -396 -107 -50 -19
-92 -35 -94 -35 -2 0 7 19 20 43 29 50 67 191 91 336 10 57 23 104 28 106 6 2
129 24 273 50 410 73 794 160 978 220 194 64 445 206 615 348 117 98 307 285
460 452 167 183 215 242 285 348 43 67 56 93 51 111 -3 14 -3 32 0 40 8 22 29
5 55 -45z m210 -143 c187 -142 302 -188 469 -185 98 1 110 4 177 37 40 19 91
50 112 69 l40 34 -19 -70 c-11 -38 -45 -138 -75 -221 -78 -215 -93 -275 -110
-450 -14 -142 -20 -168 -71 -315 -102 -293 -122 -359 -143 -464 -12 -58 -22
-106 -24 -107 -1 -1 -36 26 -77 62 -106 92 -162 117 -264 118 -59 1 -100 -5
-151 -22 -82 -27 -237 -99 -307 -142 -26 -17 -50 -30 -52 -30 -2 0 5 33 15 73
10 39 24 126 31 192 11 116 13 124 69 235 100 201 112 245 149 539 24 196 33
232 104 428 30 83 58 174 62 202 4 28 10 51 14 51 4 0 27 -15 51 -34z m-5597
-430 c50 -214 154 -368 346 -515 170 -131 275 -184 538 -271 311 -103 607
-168 865 -189 147 -13 550 -13 682 -2 50 5 91 8 92 7 3 -2 -26 -155 -43 -231
-18 -77 -55 -159 -113 -244 -21 -31 -40 -63 -43 -72 -4 -9 -44 -38 -90 -64
-166 -95 -320 -229 -414 -361 -53 -75 -144 -264 -144 -301 0 -57 69 -85 107
-44 10 11 36 61 57 111 68 161 203 315 373 429 43 29 137 81 208 116 374 182
688 250 1050 226 315 -22 424 -45 553 -118 l67 -38 -110 -2 c-126 -3 -147 -7
-169 -29 -22 -21 -20 -67 3 -88 17 -15 38 -17 171 -14 147 3 152 4 172 28 11
14 18 34 15 47 -4 22 -2 23 44 17 75 -10 97 0 121 53 19 44 20 58 14 222 -6
159 -5 181 12 231 16 45 66 156 77 168 1 1 19 -14 39 -34 36 -36 37 -36 104
-32 87 5 149 36 217 110 65 70 91 136 101 251 l7 86 28 -15 c37 -19 66 -76 78
-155 15 -91 -2 -352 -29 -448 -29 -104 -51 -142 -131 -224 -78 -81 -89 -105
-64 -143 15 -23 22 -26 61 -21 34 3 82 29 221 119 98 64 207 130 243 148 78
39 191 83 197 76 3 -3 -7 -20 -21 -38 -56 -74 -56 -181 1 -249 51 -61 152 -85
234 -57 49 16 155 85 179 115 20 25 20 25 20 4 0 -52 -120 -181 -250 -267
-161 -107 -282 -163 -411 -189 -157 -32 -212 -73 -175 -130 24 -36 59 -49 211
-75 121 -21 187 -44 262 -90 21 -14 21 -15 -28 -42 -108 -62 -148 -202 -91
-315 23 -44 117 -137 150 -147 75 -24 -42 -41 -223 -33 -183 9 -271 28 -364
79 -299 166 -327 162 -507 -68 -74 -95 -95 -104 -241 -104 -81 0 -93 3 -134
29 -43 27 -199 199 -199 219 0 5 22 19 50 31 65 28 87 60 70 101 -12 29 -23
35 -80 43 -21 3 -13 9 43 35 86 40 102 74 59 125 -21 23 -47 22 -123 -9 -146
-59 -170 -85 -134 -141 17 -25 17 -27 -6 -45 -52 -40 -132 -69 -319 -118 -159
-41 -217 -61 -315 -109 -168 -83 -339 -200 -485 -332 -191 -173 -222 -196
-413 -291 -286 -143 -578 -218 -850 -218 -72 0 -339 42 -582 91 -222 46 -490
154 -586 238 l-46 40 5 75 c4 59 1 81 -12 101 -30 46 -116 24 -116 -29 0 -16
-9 -11 -45 29 -24 28 -44 53 -45 56 0 3 13 4 29 1 21 -3 35 2 51 18 20 20 22
29 16 79 -19 159 -18 216 4 341 13 69 25 150 27 182 5 52 3 57 -21 73 -16 11
-35 15 -50 11 -30 -7 -36 7 -36 84 0 56 1 58 30 68 53 19 54 29 24 383 -15
178 -27 350 -28 382 -1 64 -18 87 -63 87 -35 0 -54 -26 -93 -122 -31 -79 -38
-88 -61 -88 -52 0 -63 -29 -71 -179 -4 -77 -20 -210 -37 -306 -29 -165 -29
-171 -12 -195 11 -15 30 -26 48 -28 50 -5 67 28 88 170 9 68 24 134 31 148 12
22 13 -8 12 -210 -1 -162 2 -242 10 -257 7 -12 12 -31 12 -43 0 -31 27 -77 48
-82 18 -5 18 -9 5 -89 -14 -82 -12 -283 4 -354 6 -27 4 -29 -10 -17 -24 20
-140 197 -176 270 -48 96 -88 229 -126 417 -51 252 -57 322 -56 642 l0 293 92
142 c50 79 93 145 95 147 2 2 13 -8 25 -22 33 -43 87 -32 107 20 6 15 29 108
52 206 40 168 41 178 26 202 -22 33 -74 34 -103 3 -11 -13 -73 -107 -139 -210
-65 -103 -120 -183 -122 -178 -5 15 37 236 69 365 60 238 136 473 230 710 l44
110 6 -105 c4 -58 14 -136 23 -174z m4768 -623 c-5 -91 -34 -157 -91 -204 -37
-30 -88 -47 -101 -33 -4 5 -3 49 1 97 7 77 12 93 39 127 27 34 117 90 145 90
7 0 9 -27 7 -77z m1054 -684 c25 -25 33 -39 23 -39 -9 0 -45 -19 -80 -41 -94
-62 -174 -63 -179 -4 -4 43 2 56 56 120 l55 65 43 -31 c24 -17 61 -48 82 -70z
m10 -594 c-26 -98 -53 -202 -62 -231 l-15 -54 -45 44 c-64 64 -151 115 -258
150 -15 5 9 21 95 64 108 54 284 166 310 198 6 8 14 13 16 10 2 -2 -16 -84
-41 -181z m-126 -476 c0 -18 11 -39 29 -58 35 -36 57 -101 38 -113 -6 -4 -35
-13 -64 -19 -50 -11 -54 -11 -87 14 -52 40 -80 91 -73 134 8 44 31 71 82 93
39 18 40 18 58 -2 9 -11 17 -33 17 -49z m-1910 -239 c0 -13 151 -190 202 -237
86 -79 115 -88 268 -88 172 0 209 11 276 79 27 28 60 65 72 81 l22 30 -6 -45
c-22 -161 -124 -453 -299 -850 -198 -451 -248 -594 -391 -1130 -160 -596 -239
-818 -437 -1220 -142 -287 -167 -354 -169 -445 l-2 -64 -71 -5 c-38 -3 -326
-24 -640 -46 -1018 -71 -1163 -73 -1478 -26 -200 31 -319 32 -482 7 -66 -10
-122 -17 -124 -15 -2 2 3 12 11 21 16 19 64 143 258 668 150 406 312 814 392
989 77 169 138 272 316 536 151 222 187 289 216 400 21 75 54 138 142 268 68
99 70 103 54 132 -9 16 2 22 102 55 138 45 296 116 425 190 121 70 167 105
313 240 167 154 388 297 553 360 38 14 143 45 235 69 92 25 178 49 192 54 26
10 50 6 50 -8z m1113 -124 c144 -85 254 -109 509 -110 149 -1 168 -3 168 -17
0 -48 -62 -217 -166 -451 -181 -408 -210 -497 -415 -1303 -137 -537 -156 -604
-238 -847 -77 -227 -153 -413 -301 -740 l-119 -263 -263 -6 c-145 -3 -345 -9
-444 -14 l-181 -7 4 53 c6 77 22 115 153 379 185 370 293 669 435 1199 164
616 178 657 438 1256 96 221 186 463 233 623 21 71 53 257 54 310 0 15 14 8
133 -62z"/>
<path d="M5990 12138 c-25 -28 -25 -28 9 -177 31 -132 42 -151 91 -151 42 0
64 32 57 82 -14 97 -50 231 -68 249 -25 25 -64 24 -89 -3z"/>
<path d="M5757 12112 c-10 -10 -17 -30 -17 -45 0 -34 76 -295 91 -313 6 -8 22
-14 35 -14 22 0 23 -1 7 -28 -16 -27 -15 -31 38 -146 39 -88 61 -123 82 -136
26 -16 27 -18 8 -23 -12 -3 -25 -16 -30 -29 -11 -29 23 -362 41 -396 23 -45
101 -37 114 12 3 13 -3 107 -14 207 -20 185 -23 196 -66 213 -6 2 -1 11 12 21
39 28 31 62 -53 239 -20 42 -37 62 -58 71 -18 7 -25 15 -18 19 6 4 11 19 11
34 -1 43 -76 291 -96 313 -22 24 -66 25 -87 1z"/>
<path d="M5876 10915 c-19 -19 -22 -41 -37 -222 -11 -128 -10 -145 5 -168 20
-31 67 -34 96 -5 11 11 20 23 20 28 0 4 7 81 15 171 14 147 14 166 0 188 -18
27 -75 32 -99 8z"/>
<path d="M4820 8100 c-17 -17 -20 -33 -20 -108 0 -99 14 -124 67 -124 46 0 63
33 63 124 0 70 -3 82 -25 103 -29 30 -58 32 -85 5z"/>
<path d="M2551 7957 c-28 -14 -223 -368 -223 -405 -1 -51 70 -82 105 -47 27
26 207 372 207 397 0 29 -9 42 -37 57 -26 13 -23 13 -52 -2z"/>
<path d="M4139 7869 c-17 -17 -20 -29 -16 -63 13 -93 50 -132 102 -108 38 17
46 51 30 113 -21 79 -71 103 -116 58z"/>
<path d="M3732 7692 c-18 -18 -42 -149 -42 -230 0 -38 30 -72 63 -72 50 0 63
28 79 168 11 104 11 112 -7 132 -23 25 -69 26 -93 2z"/>
<path d="M6207 7692 c-20 -22 -22 -62 -4 -84 18 -23 100 -76 128 -83 31 -8 79
27 79 56 0 35 -17 54 -78 92 -67 41 -101 46 -125 19z"/>
<path d="M2946 7538 c-22 -35 -49 -204 -36 -228 24 -44 88 -50 110 -10 12 22
40 163 40 201 0 56 -84 83 -114 37z"/>
<path d="M4497 7532 c-32 -35 -12 -118 34 -143 27 -14 76 5 85 33 9 30 -4 82
-27 106 -24 27 -70 29 -92 4z"/>
<path d="M6017 7392 c-27 -30 -21 -69 16 -103 39 -36 68 -45 97 -29 27 15 43
55 30 80 -17 32 -71 70 -99 70 -15 0 -35 -8 -44 -18z"/>
<path d="M2567 7233 c-8 -10 -48 -90 -87 -178 -79 -175 -81 -195 -28 -224 47
-27 72 4 154 185 76 164 82 194 47 222 -24 17 -67 15 -86 -5z"/>
<path d="M5821 7174 c-26 -33 -26 -31 0 -99 30 -82 78 -104 124 -59 21 22 18
61 -9 120 -33 71 -78 85 -115 38z"/>
<path d="M6454 7192 c-6 -4 -16 -17 -23 -29 -9 -18 -6 -36 17 -100 33 -90 61
-116 106 -95 46 21 50 53 16 142 -17 43 -38 81 -46 84 -21 8 -57 7 -70 -2z"/>
<path d="M6264 7162 c-42 -28 -32 -77 28 -146 24 -28 41 -38 63 -38 31 0 65
32 65 62 0 18 -52 97 -78 118 -17 13 -61 16 -78 4z"/>
<path d="M3015 6967 c-15 -24 -37 -247 -27 -277 17 -50 74 -66 107 -30 15 16
21 47 28 150 8 114 7 133 -7 155 -22 34 -79 35 -101 2z"/>
<path d="M4006 6921 c-13 -14 -28 -81 -52 -232 -19 -117 -34 -221 -32 -232 2
-11 15 -29 29 -40 31 -23 62 -16 84 17 8 12 31 120 50 240 33 202 35 220 20
242 -20 30 -74 33 -99 5z"/>
<path d="M4936 6911 c-16 -18 -18 -31 -12 -88 4 -41 14 -78 25 -93 23 -31 66
-38 93 -13 18 16 20 26 15 85 -8 94 -23 122 -68 126 -25 2 -40 -3 -53 -17z"/>
<path d="M5612 6880 c-39 -16 -45 -53 -21 -133 34 -113 71 -140 126 -93 l28
24 -19 74 c-25 96 -33 114 -63 127 -13 6 -25 11 -26 10 -1 0 -12 -4 -25 -9z"/>
<path d="M3338 6869 c-27 -15 -35 -36 -63 -162 -29 -128 -26 -150 23 -168 21
-8 31 -6 51 9 21 15 31 40 53 123 35 138 35 162 2 188 -30 23 -41 25 -66 10z"/>
<path d="M2628 6823 c-25 -29 -28 -50 -21 -130 4 -54 11 -81 25 -95 26 -26 63
-23 88 10 19 24 21 37 18 108 -2 63 -7 87 -22 103 -23 26 -67 27 -88 4z"/>
<path d="M4642 6780 c-21 -23 -27 -62 -38 -231 -6 -101 -6 -107 15 -128 28
-28 68 -24 92 9 13 19 21 61 30 174 l12 150 -27 23 c-33 28 -59 29 -84 3z"/>
<path d="M6142 6783 c-27 -11 -33 -52 -14 -97 25 -55 47 -76 81 -76 55 0 76
52 45 113 -32 62 -64 79 -112 60z"/>
<path d="M5275 6760 c-13 -15 -19 -42 -23 -114 -4 -86 -3 -95 17 -115 11 -11
34 -21 49 -21 48 0 62 26 69 132 5 88 4 97 -16 117 -26 26 -72 27 -96 1z"/>
<path d="M2963 6502 c-17 -11 -33 -58 -33 -97 0 -37 37 -75 71 -75 50 0 87
106 54 156 -16 24 -65 33 -92 16z"/>
<path d="M5387 6449 c-55 -42 -23 -159 42 -159 40 0 61 28 61 82 0 77 -54 117
-103 77z"/>
<path d="M4925 6438 c-30 -17 -35 -28 -35 -85 0 -40 5 -58 20 -73 47 -47 110
-4 110 75 0 66 -49 109 -95 83z"/>
<path d="M3515 6428 c-27 -15 -35 -28 -35 -61 0 -41 26 -84 56 -91 31 -8 69
13 79 44 9 28 -12 87 -38 105 -25 18 -35 18 -62 3z"/>
<path d="M4150 6420 c-46 -46 -8 -144 53 -138 18 2 37 13 49 29 17 23 18 31 8
67 -16 62 -70 82 -110 42z"/>
<path d="M4495 6378 c-33 -18 -35 -28 -35 -159 0 -113 2 -128 20 -144 27 -24
70 -22 92 5 15 19 18 41 18 145 0 122 0 124 -26 144 -30 24 -41 25 -69 9z"/>
<path d="M2946 12349 c-14 -11 -26 -30 -26 -42 0 -28 75 -154 104 -172 30 -20
72 -6 88 31 11 23 8 33 -17 81 -33 63 -85 123 -107 123 -9 0 -27 -9 -42 -21z"/>
<path d="M3230 12090 c-11 -11 -20 -29 -20 -40 0 -34 88 -198 115 -216 32 -21
69 -7 87 31 10 23 7 36 -28 107 -65 135 -106 166 -154 118z"/>
<path d="M2850 11932 c-29 -23 -29 -65 0 -121 25 -51 59 -69 95 -53 39 18 46
49 24 107 -30 80 -73 104 -119 67z"/>
<path d="M3447 11932 c-22 -24 -21 -60 3 -151 20 -77 31 -95 66 -105 29 -9 74
28 74 61 0 45 -41 188 -57 201 -24 18 -67 15 -86 -6z"/>
<path d="M3064 11874 c-31 -30 -28 -50 19 -139 37 -69 69 -88 112 -65 42 22
42 53 1 135 -50 96 -86 116 -132 69z"/>
<path d="M3620 11702 c-12 -10 -22 -29 -22 -43 0 -35 41 -138 64 -161 26 -26
66 -20 91 14 l20 27 -28 76 c-36 100 -75 127 -125 87z"/>
<path d="M2645 11690 c-23 -25 -22 -56 3 -113 15 -33 28 -48 46 -53 30 -7 71
15 80 44 7 22 -18 99 -41 124 -21 24 -65 23 -88 -2z"/>
<path d="M2651 11364 c-29 -36 -27 -45 19 -103 32 -41 46 -51 70 -51 36 0 70
31 70 64 0 13 -18 43 -41 70 -49 55 -85 61 -118 20z"/>
<path d="M2515 11206 c-35 -26 -23 -66 54 -174 46 -65 81 -104 96 -108 45 -11
93 36 79 78 -7 24 -94 148 -133 191 -27 30 -66 35 -96 13z"/>
<path d="M2883 9998 c-40 -44 -143 -223 -143 -249 0 -49 63 -77 102 -46 31 24
148 226 148 255 0 58 -68 82 -107 40z"/>
<path d="M2834 9427 c-11 -13 -30 -73 -43 -135 -23 -105 -23 -112 -7 -136 12
-20 25 -26 51 -26 46 0 58 20 89 155 25 107 25 111 7 135 -25 35 -73 39 -97 7z"/>
<path d="M4291 11282 c-39 -74 -50 -154 -26 -189 29 -41 127 -42 164 -2 40 43
33 152 -12 192 -28 24 -113 24 -126 -1z"/>
<path d="M3505 11027 c-41 -19 -54 -37 -71 -99 -26 -99 19 -156 115 -145 53 6
80 31 106 101 13 34 15 54 9 78 -17 59 -98 92 -159 65z"/>
<path d="M2131 5947 c-32 -16 -38 -44 -31 -143 6 -92 24 -124 70 -124 51 0 62
27 58 139 -3 104 -10 122 -53 135 -11 3 -31 0 -44 -7z"/>
<path d="M2563 5938 c-12 -6 -25 -18 -29 -27 -4 -9 -9 -93 -12 -187 -4 -165
-3 -173 17 -193 28 -28 56 -27 86 4 22 21 25 33 25 97 0 40 3 116 6 168 6 84
4 98 -12 117 -24 27 -53 34 -81 21z"/>
<path d="M3397 5652 c-14 -15 -17 -47 -19 -191 -3 -171 -3 -173 21 -192 29
-24 52 -24 82 0 23 19 24 25 27 186 3 162 3 168 -19 191 -27 29 -69 31 -92 6z"/>
<path d="M2323 5304 c-23 -23 -25 -30 -19 -87 3 -34 9 -116 12 -182 4 -66 11
-130 15 -143 19 -51 98 -51 118 0 5 14 3 102 -4 213 -12 175 -15 191 -35 207
-31 25 -56 22 -87 -8z"/>
<path d="M2959 5309 c-19 -19 -21 -29 -15 -93 3 -39 8 -114 11 -166 9 -158 14
-179 41 -196 30 -20 68 -12 89 19 21 33 -5 409 -31 438 -23 25 -69 24 -95 -2z"/>
<path d="M4856 5289 c-14 -11 -26 -30 -26 -42 0 -12 20 -89 45 -172 43 -146
64 -185 100 -185 23 0 65 41 65 63 0 12 -18 87 -41 167 -31 107 -48 151 -66
168 -30 27 -43 28 -77 1z"/>
<path d="M5207 5082 c-18 -20 -23 -129 -9 -206 13 -73 90 -96 122 -36 19 35 2
218 -21 241 -24 24 -71 24 -92 1z"/>
<path d="M5565 5086 c-21 -15 -32 -105 -34 -274 -1 -75 1 -85 24 -107 47 -47
93 -25 106 51 4 27 8 106 8 176 1 118 -1 129 -21 148 -25 23 -56 26 -83 6z"/>
<path d="M5975 5019 c-57 -18 -62 -18 -98 -2 -45 20 -82 7 -97 -33 -14 -35 7
-67 60 -94 51 -26 70 -25 176 6 100 28 124 45 124 84 0 60 -57 73 -165 39z"/>
<path d="M4524 4855 c-15 -23 -15 -35 -4 -116 8 -52 20 -99 29 -109 27 -31 56
-33 87 -7 l28 25 -11 92 c-14 112 -30 140 -78 140 -26 0 -39 -6 -51 -25z"/>
<path d="M2837 4852 c-20 -22 -23 -121 -6 -222 11 -71 83 -234 118 -269 11
-11 31 -21 44 -21 25 0 67 38 67 60 0 8 -22 62 -50 120 -46 98 -50 112 -56
209 -6 82 -11 108 -26 123 -23 23 -70 23 -91 0z"/>
<path d="M4145 4805 c-14 -13 -25 -29 -25 -36 0 -27 84 -200 102 -210 28 -15
65 -3 84 26 15 24 15 29 -1 73 -61 162 -105 203 -160 147z"/>
<path d="M5867 4821 c-26 -4 -54 -14 -63 -23 -23 -22 -21 -66 4 -90 18 -18 27
-19 116 -13 110 8 146 27 146 74 0 58 -57 72 -203 52z"/>
<path d="M3990 4550 c-11 -11 -20 -25 -20 -32 0 -16 79 -317 91 -349 13 -34
51 -52 84 -39 48 18 48 44 -1 232 -25 95 -53 181 -61 191 -21 23 -68 22 -93
-3z"/>
<path d="M4753 4560 c-41 -17 -45 -40 -24 -171 21 -129 36 -159 78 -159 33 0
76 45 70 73 -3 12 -11 58 -17 102 -15 110 -26 140 -56 154 -14 6 -26 11 -27
10 -1 0 -12 -4 -24 -9z"/>
<path d="M3410 4500 c-24 -24 -25 -35 -4 -317 16 -224 25 -262 62 -264 32 -2
47 2 66 21 19 18 19 26 7 207 -20 316 -22 330 -43 353 -24 26 -62 26 -88 0z"/>
<path d="M5154 4452 c-36 -24 -48 -157 -18 -200 18 -25 60 -29 89 -8 36 26 38
185 2 208 -15 10 -59 10 -73 0z"/>
<path d="M2570 4400 c-11 -11 -20 -30 -20 -43 0 -37 38 -158 56 -178 38 -42
104 -11 104 47 0 46 -38 168 -57 182 -25 18 -60 15 -83 -8z"/>
<path d="M2225 4268 c-27 -15 -35 -28 -35 -58 0 -41 77 -290 96 -311 36 -40
104 -12 104 42 0 13 -18 87 -40 164 -47 165 -69 195 -125 163z"/>
<path d="M3086 4047 c-13 -9 -21 -40 -31 -117 -8 -58 -15 -111 -15 -119 0 -10
-6 -8 -23 7 -64 61 -160 -23 -102 -88 24 -26 79 -26 105 0 14 14 20 16 20 7 0
-23 35 -47 67 -47 22 0 33 -7 44 -26 18 -35 66 -74 90 -74 27 0 59 35 59 66 0
16 -23 58 -60 108 l-60 83 6 89 c6 77 4 92 -10 107 -21 20 -65 22 -90 4z"/>
<path d="M4297 3972 c-23 -25 -21 -53 5 -106 27 -56 66 -76 102 -52 14 8 27
24 31 35 7 23 -23 97 -49 124 -23 22 -69 22 -89 -1z"/>
<path d="M3780 3930 c-11 -11 -20 -27 -20 -36 0 -31 93 -235 114 -250 11 -8
28 -14 38 -14 26 0 58 36 58 66 0 35 -78 214 -103 237 -26 23 -62 22 -87 -3z"/>
<path d="M2310 3820 c-27 -27 -28 -100 0 -125 48 -43 110 -9 110 61 0 73 -64
110 -110 64z"/>
</g>
</svg>
