<?xml version="1.0" standalone="no"?>
<!DOCTYPE svg PUBLIC "-//W3C//DTD SVG 20010904//EN"
 "http://www.w3.org/TR/2001/REC-SVG-20010904/DTD/svg10.dtd">
<svg version="1.0" xmlns="http://www.w3.org/2000/svg"
 width="1232.000000pt" height="574.000000pt" viewBox="0 0 1232.000000 574.000000"
 preserveAspectRatio="xMidYMid meet">
<metadata>
Created by potrace 1.15, written by Peter Selinger 2001-2017
</metadata>
<g transform="translate(0.000000,574.000000) scale(0.100000,-0.100000)"
fill="#000000" stroke="none">
<path d="M9954 5605 c-294 -67 -623 -270 -785 -483 -26 -34 -49 -59 -51 -55
-8 19 -148 138 -212 180 -141 93 -346 177 -506 209 -100 20 -276 20 -370 0
-162 -36 -356 -133 -441 -223 -64 -66 -136 -170 -175 -253 -21 -44 -41 -80
-44 -79 -3 0 -19 19 -35 42 -54 74 -142 134 -330 227 -283 138 -355 156 -619
147 -187 -6 -264 -20 -424 -73 -267 -88 -471 -240 -517 -385 -9 -30 -19 -60
-21 -68 -3 -8 -14 1 -30 25 -83 123 -286 331 -396 405 -138 94 -358 179 -462
179 -208 0 -497 -291 -560 -564 -9 -37 -16 -85 -16 -108 0 -32 -3 -39 -15 -34
-9 3 -48 15 -88 27 -64 20 -80 21 -153 12 -147 -18 -303 -109 -391 -228 l-48
-65 -8 37 c-36 173 -349 360 -749 449 -103 23 -147 28 -273 28 -168 1 -241
-15 -440 -92 -362 -142 -498 -245 -608 -461 -61 -121 -89 -202 -112 -335 -31
-179 -15 -310 50 -412 19 -30 35 -57 35 -59 0 -3 -19 -5 -42 -5 -137 -1 -296
-88 -512 -278 -248 -219 -409 -450 -465 -667 -20 -77 -31 -248 -20 -320 23
-164 172 -362 309 -410 119 -42 307 -20 455 54 44 22 81 38 83 36 2 -2 -1 -36
-7 -77 -16 -120 21 -265 98 -385 88 -136 224 -195 403 -172 44 5 82 8 84 6 2
-2 -7 -37 -21 -78 -82 -240 -86 -355 -18 -480 37 -69 120 -143 191 -170 80
-31 298 -38 427 -15 127 24 298 72 353 100 46 23 133 107 202 193 l33 43 97
-198 c53 -108 115 -227 139 -264 91 -144 263 -261 442 -299 127 -27 333 10
507 91 240 113 519 326 622 475 17 25 42 75 56 112 14 38 27 69 29 71 1 1 53
-79 115 -179 142 -230 242 -362 316 -420 202 -158 483 -260 676 -245 257 19
502 138 638 309 42 54 60 68 60 48 0 -17 86 -106 143 -148 104 -76 248 -102
377 -68 137 36 289 144 360 255 18 27 34 50 36 50 2 0 69 -65 148 -144 121
-121 155 -149 217 -180 123 -61 331 -93 539 -83 212 10 325 51 535 195 268
183 391 298 454 424 22 46 43 102 47 126 4 23 9 42 11 42 3 0 31 -22 62 -48
228 -197 394 -266 636 -265 101 0 134 4 210 27 120 36 170 66 265 154 102 94
161 171 208 269 31 67 37 88 37 148 0 39 -4 85 -8 103 l-9 33 54 -8 c29 -4
121 -8 203 -8 146 0 153 1 250 35 189 66 404 188 631 358 132 99 187 156 246
254 66 107 83 162 83 263 0 82 -3 97 -32 156 -38 78 -124 175 -193 219 l-50
32 67 73 c103 111 202 300 250 475 26 96 23 262 -6 365 -66 236 -239 441 -464
550 -124 59 -190 75 -332 82 -114 5 -159 0 -271 -33 -21 -6 -21 -3 -27 183 -6
217 -26 338 -88 527 -131 400 -334 631 -624 711 -83 23 -338 29 -421 10z m335
-270 c199 -47 339 -209 445 -513 58 -169 80 -301 80 -492 l1 -165 -42 -110
c-22 -60 -58 -150 -79 -200 -45 -107 -53 -168 -30 -214 23 -43 71 -71 123 -71
60 0 110 43 202 174 67 95 83 113 133 138 212 109 450 65 634 -117 124 -122
175 -235 176 -384 1 -93 -19 -166 -74 -275 -71 -142 -104 -182 -247 -302 -157
-132 -201 -186 -201 -248 0 -118 95 -170 239 -132 60 17 85 11 140 -31 42 -33
91 -109 91 -144 0 -38 -56 -142 -104 -191 -139 -145 -550 -393 -718 -434 -57
-14 -91 -15 -223 -7 -259 15 -358 -5 -412 -85 -35 -53 -39 -111 -14 -212 19
-78 20 -90 7 -121 -23 -55 -98 -150 -158 -202 -69 -59 -125 -84 -221 -99 -64
-10 -89 -9 -164 6 -150 29 -201 59 -428 251 -201 170 -217 183 -279 211 -64
29 -117 29 -161 0 -69 -45 -76 -123 -25 -255 26 -67 31 -92 26 -127 -14 -108
-107 -213 -323 -363 -237 -166 -291 -188 -473 -198 -123 -6 -310 17 -379 48
-31 14 -107 81 -250 222 -219 214 -265 248 -345 249 -94 2 -148 -63 -150 -182
-2 -82 -30 -131 -104 -185 -89 -65 -187 -83 -252 -44 -67 40 -89 70 -131 178
-71 182 -102 232 -163 263 -71 36 -146 5 -184 -76 -12 -24 -29 -84 -38 -134
-14 -76 -22 -97 -57 -144 -78 -103 -178 -169 -316 -207 -172 -48 -279 -33
-476 63 -179 88 -225 140 -459 519 -169 272 -278 360 -392 312 -78 -33 -113
-85 -169 -255 l-38 -115 -91 -90 c-154 -154 -391 -298 -575 -351 -123 -35
-202 -31 -296 15 -109 54 -160 113 -245 286 -106 216 -165 312 -235 381 -71
72 -114 89 -182 74 -62 -14 -119 -53 -188 -128 -138 -150 -136 -149 -209 -171
-124 -38 -260 -61 -364 -61 -118 0 -145 8 -173 52 -35 56 -22 122 71 383 92
258 106 333 75 398 -35 74 -124 97 -214 57 -24 -11 -72 -43 -107 -70 -78 -61
-101 -71 -177 -73 -58 -1 -61 0 -97 41 -41 46 -70 129 -70 201 0 23 12 88 27
144 51 197 33 310 -55 349 -81 36 -155 13 -350 -110 -115 -72 -199 -102 -286
-102 -45 0 -103 49 -146 125 -27 47 -30 61 -30 136 1 216 74 361 299 593 116
118 233 215 325 266 53 30 72 35 194 46 170 16 234 43 270 114 38 74 13 158
-90 306 l-53 76 2 102 c3 182 76 380 178 481 118 119 535 285 715 285 109 0
316 -43 454 -95 129 -49 277 -134 301 -174 5 -9 9 -57 10 -108 0 -88 1 -93 30
-122 39 -42 91 -56 144 -37 36 12 42 12 56 -4 23 -26 89 -40 130 -29 42 12 65
40 135 158 45 77 63 98 113 131 118 79 151 77 367 -25 167 -80 218 -92 277
-70 67 26 102 89 89 160 -4 19 -28 65 -53 102 -45 66 -46 70 -46 141 1 64 6
83 37 147 42 85 158 215 219 246 52 27 100 20 206 -31 117 -57 195 -112 286
-204 132 -132 195 -221 284 -394 54 -106 94 -171 116 -191 44 -38 100 -54 144
-41 87 25 119 78 132 224 23 246 28 277 50 312 49 80 241 183 433 232 90 23
120 26 286 27 215 0 224 -2 460 -119 197 -97 216 -113 301 -258 40 -68 86
-143 103 -166 75 -106 202 -122 264 -34 29 39 50 122 60 235 8 83 15 110 46
171 48 93 112 171 180 217 68 46 203 95 292 107 174 23 416 -44 612 -171 80
-52 202 -163 232 -213 19 -31 20 -38 9 -94 -29 -148 17 -344 101 -431 41 -44
51 -49 89 -49 23 0 55 7 70 15 82 42 112 267 65 481 -16 69 -16 71 6 115 63
123 149 217 278 302 97 65 285 154 372 176 92 24 230 27 319 6z"/>
<path d="M2304 4060 c-206 -54 -372 -177 -420 -311 -22 -64 -28 -190 -14 -309
13 -115 78 -476 114 -636 13 -58 19 -109 15 -120 -20 -50 -7 -106 33 -150 12
-14 47 -126 98 -320 128 -486 143 -523 223 -553 65 -25 149 29 163 105 4 20 4
64 1 98 -5 50 -84 472 -104 553 -5 21 -3 22 84 22 99 0 178 18 272 61 236 110
461 441 503 742 19 137 -12 341 -69 453 -81 158 -302 314 -513 365 -112 26
-285 27 -386 0z m329 -265 c147 -38 318 -167 345 -262 23 -79 33 -198 22 -266
-33 -208 -202 -457 -360 -531 -37 -17 -64 -21 -157 -21 -67 0 -116 4 -123 11
-6 6 -53 224 -105 484 -74 375 -92 477 -82 488 22 27 87 62 160 87 86 28 212
33 300 10z"/>
<path d="M7200 3835 c-298 -64 -470 -97 -531 -102 -67 -6 -68 -6 -96 27 -36
44 -105 74 -149 66 -97 -19 -143 -134 -83 -210 20 -25 20 -26 -12 -528 l-32
-503 -33 -33 c-55 -53 -58 -122 -8 -181 l26 -31 -21 -340 c-21 -323 -21 -342
-5 -376 26 -54 67 -76 132 -71 43 3 59 10 83 33 39 39 44 76 64 434 9 162 18
305 20 316 4 17 15 23 52 29 27 4 101 17 167 30 97 19 124 28 147 51 56 53 61
127 12 184 -40 48 -85 54 -211 30 -59 -11 -116 -20 -127 -20 -20 0 -20 1 5
404 14 223 27 407 30 409 3 3 61 13 129 22 111 14 538 99 631 125 112 31 134
181 37 240 -41 25 -93 24 -227 -5z"/>
<path d="M4205 3429 c-49 -16 -137 -51 -195 -77 -100 -45 -106 -50 -129 -95
-21 -44 -23 -52 -12 -89 15 -50 51 -86 92 -95 18 -3 34 -14 39 -27 5 -12 59
-284 121 -606 61 -322 117 -600 124 -617 38 -91 182 -97 235 -10 27 44 26 62
-20 297 -22 113 -40 209 -40 214 0 4 39 -27 88 -71 334 -303 547 -449 671
-460 51 -5 60 -3 90 23 45 37 60 78 62 163 2 83 -18 126 -71 154 -38 20 -99
16 -135 -7 -18 -12 -25 -11 -50 7 -61 43 -234 185 -349 286 -99 87 -116 106
-100 112 126 47 137 54 182 105 57 63 82 125 89 219 5 64 -5 154 -22 198 -4 9
8 2 27 -17 64 -64 264 -111 444 -104 l102 3 5 -215 c3 -161 10 -241 25 -320
53 -269 94 -446 108 -468 72 -110 244 -60 244 72 0 19 -18 119 -39 223 -22
103 -47 236 -55 294 -16 108 -21 321 -10 416 6 50 8 52 53 69 109 41 298 128
319 147 34 31 48 88 33 136 -13 46 -61 91 -99 92 -53 2 -69 -3 -206 -63 -136
-59 -140 -61 -186 -50 -59 14 -103 3 -142 -35 l-29 -28 -147 1 c-134 0 -154 3
-221 27 -41 15 -87 27 -103 27 -62 0 -122 -53 -134 -117 l-7 -35 -26 45 c-112
193 -295 308 -484 307 -30 -1 -90 -13 -142 -31z m259 -273 c90 -52 150 -146
161 -247 10 -89 -1 -100 -126 -125 -59 -12 -116 -27 -128 -34 -13 -6 -25 -9
-28 -6 -5 5 -82 388 -83 412 0 18 61 33 114 29 26 -2 67 -15 90 -29z"/>
<path d="M8342 3390 c-61 -38 -68 -68 -54 -258 7 -92 18 -256 24 -364 l12
-198 -28 -155 c-32 -177 -33 -295 -2 -354 32 -60 103 -127 166 -155 74 -34
179 -44 247 -26 86 24 335 150 380 192 63 59 39 180 -42 214 -55 23 -79 17
-193 -43 -177 -94 -196 -102 -225 -103 -33 0 -82 23 -90 44 -3 7 6 69 21 137
23 110 26 147 26 329 1 260 -29 641 -53 689 -33 66 -124 90 -189 51z"/>
<path d="M9261 3303 c-43 -22 -71 -67 -71 -117 0 -65 131 -968 145 -1003 27
-64 119 -92 186 -58 37 20 69 70 69 111 0 16 -31 247 -69 512 -47 330 -74 490
-85 507 -37 57 -116 78 -175 48z"/>
<path d="M10152 3280 c-210 -48 -354 -192 -430 -430 -53 -164 -56 -340 -9
-463 76 -196 248 -381 400 -429 74 -23 207 -27 287 -8 123 28 253 107 348 211
101 111 151 247 160 435 9 202 -32 331 -136 433 -71 69 -202 138 -294 153 -56
10 -65 15 -78 42 -21 44 -74 76 -124 75 -23 0 -78 -9 -124 -19z m335 -385 c64
-29 107 -65 130 -109 34 -65 25 -269 -17 -362 -37 -85 -148 -180 -238 -204
-57 -15 -132 -15 -176 0 -48 16 -154 131 -196 215 -23 46 -35 85 -38 125 -7
99 27 245 76 325 l19 30 191 3 c189 4 192 3 249 -23z"/>
<path d="M7555 2839 c-60 -34 -137 -74 -170 -89 -62 -29 -145 -108 -206 -197
-66 -96 -148 -302 -170 -428 -28 -161 70 -324 246 -411 l79 -39 130 0 c154 0
221 15 345 77 99 50 215 156 250 231 71 148 66 308 -13 465 -31 61 -137 176
-195 212 -28 17 -39 30 -34 40 4 8 8 35 10 60 7 78 -53 140 -134 140 -15 0
-77 -28 -138 -61z m141 -401 c53 -34 91 -80 122 -147 29 -64 26 -140 -8 -196
-28 -46 -105 -101 -177 -126 -80 -28 -219 -37 -260 -16 -50 26 -93 83 -93 123
0 77 89 289 152 360 l32 36 95 -4 c82 -3 102 -8 137 -30z"/>
<path d="M3350 2785 c-47 -24 -98 -47 -113 -50 -15 -3 -68 -41 -118 -86 -71
-64 -97 -95 -124 -150 -47 -91 -65 -166 -65 -262 0 -166 55 -293 163 -379 121
-95 239 -126 411 -108 246 25 442 160 507 347 23 68 25 177 4 246 -33 111
-127 251 -212 318 -41 33 -130 77 -173 86 -17 3 -35 14 -41 25 -16 31 -70 58
-114 58 -28 0 -66 -14 -125 -45z m225 -306 c78 -22 185 -167 185 -253 0 -99
-115 -186 -272 -206 -90 -11 -159 1 -211 37 -57 40 -71 74 -72 173 0 74 4 92
28 137 17 33 43 63 68 80 40 26 61 30 214 41 11 1 38 -3 60 -9z"/>
</g>
</svg>
